{"glyphs":{"0":{"ha":839,"x_min":0,"x_max":0,"o":"m 39 463 b 69 268 40 390 50 325 b 228 49 106 167 158 94 b 653 85 372 -50 524 -36 b 797 522 758 183 807 329 b 757 726 793 597 781 665 b 483 969 703 865 611 946 b 160 851 360 992 253 953 b 106 776 136 825 118 800 b 63 663 93 753 79 714 b 40 515 50 625 43 575 b 39 463 39 504 39 486 z m 143 656 b 153 699 144 672 149 686 b 460 729 196 817 299 836 b 622 554 517 690 571 632 b 704 347 679 469 699 418 b 651 208 708 288 692 240 b 499 188 611 176 561 169 b 292 335 426 208 374 244 b 217 431 264 365 239 397 b 143 656 160 518 136 593 z "},"1":{"ha":836,"x_min":0,"x_max":0,"o":"m 292 113 b 282 58 292 101 289 83 b 264 0 278 40 272 21 l 578 0 b 567 25 572 11 568 19 b 547 108 554 57 547 85 l 547 982 l 496 958 b 369 908 461 943 419 926 b 250 872 321 890 281 879 b 292 776 278 850 292 818 z "},"2":{"ha":836,"x_min":0,"x_max":0,"o":"m 678 0 b 692 56 682 15 690 44 b 767 263 710 126 735 194 b 738 247 754 256 744 250 b 619 214 685 225 646 214 b 349 213 529 213 439 213 l 613 408 b 654 443 622 415 636 426 b 760 672 732 517 761 582 b 647 892 758 765 721 839 b 339 958 574 946 471 968 b 139 899 253 951 186 932 b 35 760 79 858 44 813 b 115 583 18 672 54 604 b 282 644 189 560 244 579 b 290 665 286 651 289 658 b 294 729 297 686 299 708 b 282 826 283 772 279 806 b 378 899 289 865 326 897 b 489 696 444 903 490 833 b 399 418 488 606 457 514 b 97 74 342 322 240 208 b 17 0 63 40 35 15 l 678 0 z "},"3":{"ha":839,"x_min":0,"x_max":0,"o":"m 310 508 b 501 267 453 492 511 422 b 489 196 500 242 496 218 b 408 69 468 129 442 88 b 269 53 351 39 306 33 b 232 157 226 75 210 128 b 258 193 239 167 247 179 b 210 365 310 256 292 331 b 81 350 167 383 124 379 b 32 149 25 313 4 239 b 186 10 51 88 103 42 b 425 -14 246 -12 326 -21 b 553 13 471 -11 513 -3 b 589 28 564 17 576 21 b 767 224 688 74 747 139 b 540 547 804 392 740 486 l 492 560 l 517 569 b 696 753 646 625 690 669 b 453 965 706 871 615 956 b 382 963 433 967 410 965 b 218 919 308 953 254 939 b 100 814 183 901 143 865 l 78 785 l 93 761 b 125 779 104 768 115 775 b 289 828 190 814 246 829 b 432 757 360 826 408 803 b 317 557 478 678 433 586 b 285 553 307 557 294 553 l 285 510 b 310 508 296 510 304 510 z "},"4":{"ha":838,"x_min":0,"x_max":0,"o":"m 110 211 l 440 214 l 440 118 b 382 -11 440 96 421 53 b 360 -44 372 -26 365 -37 b 408 -29 385 -36 401 -31 b 736 18 536 8 646 24 b 715 40 726 28 719 35 b 678 133 690 74 678 104 l 678 204 b 756 185 707 206 732 200 b 781 168 763 182 771 176 l 781 338 l 765 325 b 685 296 744 307 707 289 l 685 951 b 478 889 618 925 549 904 b 436 882 460 885 446 883 l 436 294 l 128 293 l 142 308 l 154 322 b 188 361 169 339 181 351 b 408 789 318 518 392 660 b 356 949 418 872 404 915 b 264 975 326 971 296 979 b 203 953 238 971 217 964 b 157 890 190 943 175 922 b 139 803 147 872 140 843 b 140 789 139 796 139 792 b 143 753 142 782 142 763 b 147 688 144 731 147 697 b 132 486 149 594 143 526 b 29 250 122 446 88 368 l 4 200 b 61 211 29 207 49 211 z "},"5":{"ha":836,"x_min":0,"x_max":0,"o":"m 100 40 l 122 31 b 336 -17 185 3 257 -12 b 613 39 447 -22 539 -4 b 721 126 653 61 689 90 b 606 569 857 272 803 493 b 442 604 563 588 508 599 b 360 604 414 606 386 606 b 271 593 328 601 297 597 l 261 590 l 215 578 l 163 561 l 218 740 l 250 732 b 449 724 322 718 389 715 b 685 842 558 740 638 779 b 736 954 711 876 728 914 b 268 956 604 904 469 904 b 233 967 261 957 240 963 l 60 442 l 100 467 b 240 518 146 492 193 508 b 435 481 322 535 388 522 b 496 308 483 440 503 382 b 239 76 481 179 390 93 b 82 89 193 71 140 75 l 47 97 l 40 69 l 60 60 l 81 49 z "},"6":{"ha":838,"x_min":0,"x_max":0,"o":"m 499 1025 b 343 964 429 1001 378 981 b 238 893 310 947 275 924 b 83 703 171 840 119 776 b 25 479 51 638 32 564 b 25 393 24 450 24 421 b 108 138 32 289 60 203 b 375 -21 175 49 264 -4 b 601 7 457 -33 533 -24 b 810 311 725 60 794 161 b 783 508 818 381 810 446 b 628 690 747 596 696 656 b 590 707 615 697 603 703 l 542 681 b 424 618 510 663 469 642 b 313 565 378 594 340 578 l 336 526 b 564 431 419 531 496 499 b 649 271 607 388 635 335 b 654 174 656 231 658 199 b 508 94 643 96 581 63 b 368 217 457 117 411 157 b 275 422 331 268 299 336 b 271 722 244 536 243 636 b 354 872 290 782 318 832 b 518 999 392 913 446 956 b 544 1014 526 1004 535 1010 l 532 1036 b 499 1025 525 1032 506 1026 z "},"7":{"ha":838,"x_min":0,"x_max":0,"o":"m 106 681 l 133 693 b 228 721 174 711 206 721 l 579 724 l 363 510 b 293 415 340 486 317 456 b 228 104 226 297 204 194 b 269 15 240 61 254 32 b 351 -21 286 -1 314 -14 b 504 17 414 -33 464 -21 b 556 165 544 54 563 103 b 540 240 554 183 550 208 l 503 374 l 501 376 b 499 411 500 392 499 403 b 514 521 497 451 503 489 b 547 583 524 550 535 571 l 558 597 l 624 679 l 644 708 b 740 854 693 776 725 825 b 767 951 756 883 764 917 l 136 954 b 65 715 118 883 94 803 l 54 682 l 43 650 l 65 661 z "},"8":{"ha":839,"x_min":0,"x_max":0,"o":"m 165 481 b 35 211 56 407 11 318 b 188 29 50 138 101 76 b 504 -17 275 -18 381 -33 b 621 18 551 -10 590 1 b 797 238 724 72 782 144 b 779 415 810 311 803 371 b 621 569 756 461 703 513 l 601 582 l 617 593 b 699 661 657 622 685 644 b 731 731 713 678 724 701 b 707 885 746 789 739 840 b 608 951 683 918 651 940 b 458 939 551 967 501 963 b 374 821 407 910 379 869 b 394 828 383 825 390 826 b 521 815 457 846 482 843 b 563 704 553 790 567 753 b 514 624 560 671 543 644 l 428 665 b 313 893 322 717 279 815 b 367 954 328 925 346 946 b 374 957 368 956 371 956 l 400 969 l 411 975 l 429 985 b 310 976 388 989 347 986 b 101 765 186 944 117 874 b 182 525 89 671 110 607 b 201 503 186 519 192 513 b 165 481 185 493 172 486 z m 492 356 b 532 331 507 349 519 340 b 626 236 579 299 611 267 b 607 88 661 175 654 125 b 436 85 572 60 515 58 b 354 126 407 94 381 108 b 240 272 296 167 258 215 b 282 464 210 369 224 433 z "},"9":{"ha":838,"x_min":0,"x_max":0,"o":"m 336 -65 b 490 -6 404 -43 456 -24 b 599 65 525 11 561 35 b 753 257 665 119 717 183 b 810 481 785 321 803 396 b 810 567 811 518 811 547 b 728 822 801 674 774 758 b 461 979 661 913 572 964 b 235 951 379 992 303 982 b 25 649 113 899 43 797 b 53 451 18 578 26 513 b 208 268 90 364 142 303 b 246 253 217 264 229 258 l 294 279 b 411 340 326 297 365 317 b 524 394 457 364 494 382 l 500 433 b 271 529 415 429 339 461 b 188 688 229 571 201 624 b 182 786 179 725 178 757 b 328 865 193 863 256 897 b 468 743 378 842 425 801 b 561 538 507 689 538 621 b 564 238 592 425 593 325 b 481 86 544 178 517 128 b 318 -40 444 46 390 3 b 292 -56 311 -43 303 -49 l 303 -76 b 336 -65 310 -75 329 -69 z "},"\u0000":{"ha":0,"x_min":0,"x_max":0,"o":""},"\r":{"ha":403,"x_min":0,"x_max":0,"o":""}," ":{"ha":403,"x_min":0,"x_max":0,"o":""},"!":{"ha":425,"x_min":0,"x_max":0,"o":"m 353 822 b 325 953 358 879 349 924 b 167 997 285 1001 232 1017 b 67 860 99 978 65 932 b 71 825 67 847 68 836 l 193 300 l 249 303 l 347 789 b 353 822 349 796 351 807 z m 178 -18 b 250 -18 201 -25 226 -25 b 349 125 315 0 356 60 b 310 204 344 157 331 183 b 164 231 272 240 224 249 b 81 113 114 215 82 172 b 178 -18 78 44 110 1 z "},"\"":{"ha":736,"x_min":0,"x_max":0,"o":"m 51 863 b 78 814 57 842 65 826 b 118 774 101 792 114 778 b 114 654 147 733 146 693 b 67 594 85 618 68 599 b 71 574 65 592 67 585 b 147 585 76 551 113 551 l 204 636 b 240 679 221 654 233 669 b 286 757 261 708 276 733 b 188 1017 347 908 299 1010 b 50 921 111 1021 63 983 b 51 863 46 901 47 882 z m 419 863 b 446 814 425 842 433 826 b 486 774 469 792 482 778 b 482 654 515 733 514 693 b 435 594 453 618 436 599 b 439 574 433 592 435 585 b 515 585 444 551 481 551 l 572 636 b 608 679 589 654 601 669 b 654 757 629 708 644 733 b 556 1017 715 908 667 1010 b 418 921 479 1021 431 983 b 419 863 414 901 415 882 z "},"#":{"ha":713,"x_min":0,"x_max":0,"o":"m 167 0 l 242 300 l 379 300 l 304 0 l 407 0 l 482 300 l 617 300 l 642 400 l 507 400 l 557 600 l 688 600 l 713 700 l 582 700 l 656 1000 l 553 1000 l 478 700 l 342 700 l 415 1000 l 313 1000 l 238 700 l 97 700 l 72 600 l 213 600 l 164 400 l 25 400 l 0 300 l 139 300 l 64 0 z m 454 600 l 404 400 l 267 400 l 317 600 z "},"$":{"ha":840,"x_min":0,"x_max":0,"o":"m 317 163 b 256 317 301 256 289 285 b 146 350 224 349 186 360 b 58 274 106 342 76 317 b 353 4 14 163 107 50 b 404 -4 385 -1 403 -4 l 404 -147 l 485 -146 l 485 -4 l 515 3 b 789 283 686 43 778 136 b 639 576 799 411 749 508 b 588 603 624 586 606 596 l 469 654 l 469 904 b 532 863 507 897 528 883 b 536 833 532 853 533 843 b 603 711 547 774 569 733 b 703 699 636 690 669 686 b 765 772 736 711 757 736 b 711 913 776 821 758 867 b 500 993 665 958 594 985 b 464 996 483 994 471 996 l 464 1131 l 383 1131 l 383 994 b 363 993 379 994 368 993 b 196 942 297 986 242 969 b 81 654 86 874 49 778 b 163 526 93 608 119 567 b 249 469 194 499 224 479 l 399 413 l 399 90 b 317 163 347 114 319 138 z m 386 692 b 357 700 376 693 367 696 b 274 776 314 715 286 742 b 351 910 253 838 281 888 b 386 915 361 914 374 915 z m 479 378 b 532 351 500 371 518 361 b 608 211 586 314 611 267 b 596 158 607 190 603 174 b 479 82 571 99 532 72 z "},"%":{"ha":869,"x_min":0,"x_max":0,"o":"m 40 725 b 176 506 47 606 93 532 b 344 540 238 485 293 496 b 422 779 396 585 429 675 b 346 954 415 858 390 917 b 115 949 268 1019 192 1017 b 43 793 72 910 56 872 b 40 761 42 778 40 768 z m 818 944 l 761 994 l 40 47 l 99 1 l 103 6 z m 611 0 b 785 83 682 -10 739 18 b 826 214 807 114 821 157 b 813 357 832 269 828 317 b 653 499 779 453 740 488 b 507 440 597 506 549 486 b 444 251 467 394 446 332 b 611 0 443 111 517 15 z m 85 828 b 190 899 89 885 133 917 b 265 851 211 892 236 876 b 296 824 272 846 283 836 b 363 721 329 786 351 753 b 293 583 389 631 360 579 b 135 706 244 586 192 626 b 85 828 100 756 83 796 z m 493 338 b 497 357 493 339 496 351 b 644 386 515 417 582 432 b 711 325 667 369 689 349 b 783 182 756 274 779 226 b 693 96 789 122 744 83 b 608 139 661 103 633 117 b 493 338 536 201 489 292 z "},"&":{"ha":1135,"x_min":0,"x_max":0,"o":"m 200 468 b 156 436 179 456 165 444 b 51 124 49 346 14 242 b 247 -40 78 44 151 -18 b 403 -31 294 -50 346 -46 l 440 -18 b 511 18 471 -6 494 6 l 571 60 l 575 63 b 608 74 590 68 601 72 b 624 60 618 75 624 71 b 622 35 625 54 624 46 b 607 0 617 18 611 7 l 1031 0 b 965 43 1007 13 985 28 b 894 110 928 74 904 96 l 829 194 l 811 225 b 961 317 853 264 903 294 b 1111 350 1010 335 1060 346 b 1058 406 1088 374 1069 393 b 931 579 1013 454 971 513 b 925 543 929 563 926 550 b 846 376 911 476 885 421 b 756 301 822 347 793 322 l 486 683 b 476 701 485 685 481 692 b 469 790 460 736 457 767 b 536 842 485 822 507 839 b 628 800 585 846 615 832 b 568 699 649 751 625 711 b 544 697 563 697 554 697 b 624 608 542 651 568 622 b 792 696 697 590 771 629 b 721 858 811 757 788 811 b 472 908 656 906 572 922 b 260 788 365 893 294 853 b 281 553 226 722 233 644 b 299 521 288 538 294 528 l 249 494 l 213 475 z m 554 153 b 457 126 525 133 492 125 b 288 224 379 128 322 160 b 267 281 278 242 271 260 b 297 418 256 338 260 363 b 325 450 306 431 315 440 b 365 432 338 460 350 453 z "},"'":{"ha":368,"x_min":0,"x_max":0,"o":"m 51 863 b 78 814 57 842 65 826 b 118 774 101 792 114 778 b 114 654 147 733 146 693 b 67 594 85 618 68 599 b 71 574 65 592 67 585 b 147 585 76 551 113 551 l 204 636 b 240 679 221 654 233 669 b 286 757 261 708 276 733 b 188 1017 347 908 299 1010 b 50 921 111 1021 63 983 b 51 863 46 901 47 882 z "},"(":{"ha":501,"x_min":0,"x_max":0,"o":"m 263 1072 b 113 807 196 985 146 896 b 60 521 78 717 61 622 b 251 -43 56 322 113 153 l 303 -110 l 492 -110 l 478 -86 l 457 -50 b 371 122 418 21 389 78 b 322 278 353 168 336 219 b 297 419 310 329 301 376 b 299 599 294 464 294 524 b 311 718 303 651 307 692 b 356 882 324 783 338 839 b 450 1064 374 926 404 988 l 476 1106 l 290 1108 l 263 1072 z "},")":{"ha":501,"x_min":0,"x_max":0,"o":"m 43 1047 b 131 874 83 976 113 918 b 179 721 149 829 165 778 b 203 578 192 669 200 621 b 203 400 207 535 207 475 b 190 279 199 346 194 306 b 147 117 179 214 165 160 b 50 -67 129 74 97 13 l 25 -108 l 210 -110 l 239 -75 b 329 56 278 -25 308 18 b 389 190 350 93 371 139 b 397 760 457 372 458 582 b 250 1040 368 850 318 943 l 221 1079 l 199 1108 l 10 1107 l 24 1083 z "},"*":{"ha":535,"x_min":0,"x_max":0,"o":"m 206 849 b 65 915 139 949 111 961 b 64 831 33 882 36 847 b 133 808 74 824 96 817 b 164 803 146 807 157 804 l 229 790 l 229 783 l 171 774 l 153 771 l 119 765 b 51 676 68 754 42 719 b 129 635 61 638 96 619 l 133 636 b 192 699 142 640 161 661 l 210 722 l 215 729 l 242 758 l 250 758 l 239 726 l 235 715 l 207 639 b 256 549 196 585 213 554 b 322 603 290 543 318 565 b 293 713 324 615 314 651 l 276 758 l 285 761 l 296 746 l 310 726 l 332 701 b 465 661 397 628 433 618 b 457 739 486 688 483 718 b 336 771 444 749 404 758 l 292 779 l 293 788 l 328 796 l 340 799 l 413 815 b 446 825 428 819 439 822 b 465 894 468 832 476 863 b 379 928 450 929 413 944 b 357 911 372 924 364 918 l 354 907 l 311 853 l 303 842 l 276 811 l 269 811 l 286 860 l 290 872 l 315 946 b 258 1015 331 990 310 1017 b 233 857 186 1011 179 979 l 253 811 l 243 810 b 206 849 225 826 213 839 z "},"+":{"ha":838,"x_min":0,"x_max":0,"o":"m 517 115 l 517 400 l 803 400 l 803 599 l 517 599 l 517 885 l 318 885 l 318 600 l 32 600 l 32 400 l 318 400 l 318 115 z "},",":{"ha":368,"x_min":0,"x_max":0,"o":"m 51 81 b 78 32 58 60 67 43 b 118 -7 101 11 114 -3 b 114 -128 147 -49 146 -89 b 67 -186 85 -162 69 -182 b 71 -207 65 -190 67 -197 b 147 -197 76 -229 113 -229 l 204 -144 b 240 -101 221 -126 233 -111 b 286 -24 261 -72 276 -47 b 188 236 347 128 299 229 b 50 140 114 240 63 203 b 51 81 46 121 47 101 z "},"-":{"ha":514,"x_min":0,"x_max":0,"o":"m 50 475 l 50 294 l 464 294 l 464 475 z "},".":{"ha":369,"x_min":0,"x_max":0,"o":"m 147 -18 b 219 -18 171 -25 196 -25 b 319 125 286 0 326 60 b 279 204 315 157 301 183 b 133 231 242 240 193 249 b 50 113 81 214 53 175 b 147 -18 47 44 79 1 z "},"/":{"ha":475,"x_min":0,"x_max":0,"o":"m 308 989 l 50 22 l 167 -8 l 425 957 z "},":":{"ha":408,"x_min":0,"x_max":0,"o":"m 167 -18 b 239 -18 190 -25 215 -25 b 339 125 306 0 346 60 b 299 204 335 157 321 183 b 153 231 261 240 213 249 b 69 113 100 214 72 175 b 167 -18 67 44 99 1 z m 167 471 b 239 471 190 464 215 464 b 339 614 306 489 346 549 b 299 694 335 646 321 672 b 153 719 261 729 213 738 b 69 601 100 703 72 664 b 167 471 67 533 99 490 z "},";":{"ha":411,"x_min":0,"x_max":0,"o":"m 167 471 b 239 471 190 464 215 464 b 339 614 306 489 346 549 b 299 694 335 646 321 672 b 153 719 261 729 213 738 b 69 601 100 703 72 664 b 167 471 67 533 99 490 z m 71 81 b 97 32 78 60 86 43 b 138 -7 121 11 133 -3 b 133 -128 167 -49 165 -89 b 86 -186 104 -162 89 -182 b 90 -207 85 -190 86 -197 b 167 -197 96 -229 132 -229 l 224 -144 b 260 -101 240 -126 253 -111 b 306 -24 281 -72 296 -47 b 207 236 367 128 318 229 b 69 140 133 240 82 203 b 71 81 65 121 67 101 z "},"<":{"ha":694,"x_min":0,"x_max":0,"o":"m 51 521 l 643 111 l 643 401 l 346 607 l 643 789 l 643 899 l 51 535 z "},"=":{"ha":836,"x_min":0,"x_max":0,"o":"m 32 458 l 32 260 l 803 260 l 803 458 z m 33 740 l 33 542 l 803 542 l 803 740 z "},">":{"ha":694,"x_min":0,"x_max":0,"o":"m 643 489 l 51 899 l 51 608 l 349 403 l 51 221 l 51 111 l 643 475 z "},"?":{"ha":650,"x_min":0,"x_max":0,"o":"m 254 -18 b 326 -18 278 -25 303 -25 b 426 125 393 0 433 60 b 386 204 422 157 408 183 b 240 231 349 240 300 249 b 157 113 192 215 158 172 b 254 -18 154 44 186 1 z m 581 631 b 617 756 603 667 615 708 b 360 1011 621 894 526 993 b 257 1008 328 1015 293 1014 b 40 871 139 989 67 943 b 47 719 19 813 22 763 b 163 654 72 678 111 656 b 281 782 246 653 299 714 b 271 808 279 792 276 800 b 222 806 256 801 239 800 b 185 881 188 817 172 849 b 246 931 194 904 215 921 b 346 906 283 943 317 935 b 357 733 383 868 388 810 b 347 711 354 724 351 717 l 274 604 b 244 507 263 588 253 556 b 265 318 229 433 236 369 l 319 318 l 314 363 b 321 415 311 378 314 394 b 371 474 331 442 347 461 l 476 533 b 581 631 524 560 558 593 z "},"@":{"ha":1096,"x_min":0,"x_max":0,"o":"m 907 249 b 767 117 875 194 829 151 b 575 65 706 82 642 65 b 289 182 463 65 368 104 b 171 468 210 261 171 356 b 285 747 171 578 208 671 b 564 863 361 824 454 863 b 821 767 664 863 750 831 b 928 536 892 703 928 626 b 857 349 928 467 904 404 b 735 264 817 303 763 264 b 701 293 717 264 701 276 b 703 303 701 297 701 301 l 708 318 l 718 351 l 835 711 b 740 708 808 710 776 708 l 703 708 l 688 669 b 553 731 657 710 613 731 b 357 622 482 731 417 694 b 268 383 297 550 268 471 b 318 246 268 329 285 283 b 442 190 351 208 393 190 b 542 219 482 190 515 200 l 582 247 l 588 251 b 697 196 610 214 646 196 b 908 301 776 196 846 231 b 1003 543 971 372 1003 453 b 875 822 1003 651 960 744 b 567 939 790 900 688 939 b 232 800 435 939 324 893 b 94 465 140 708 94 597 b 233 126 94 333 140 219 b 571 -14 326 33 439 -14 b 822 57 661 -14 746 10 b 999 249 899 104 958 168 z m 581 363 b 461 250 558 296 510 250 b 399 321 424 250 399 278 b 463 554 399 400 419 478 b 593 668 506 631 549 668 b 654 600 626 668 654 638 b 649 568 654 589 653 578 z "},"A":{"ha":926,"x_min":0,"x_max":0,"o":"m 301 0 b 274 35 289 15 279 26 b 225 244 225 106 208 175 l 258 381 l 571 381 l 631 124 b 613 18 640 83 635 49 b 599 0 608 11 603 6 l 967 0 l 949 17 b 893 101 919 46 900 75 l 750 704 l 733 772 l 736 797 b 767 908 738 832 750 886 b 650 924 729 907 690 913 b 619 936 649 925 626 932 l 586 950 l 518 979 b 357 1031 453 1007 399 1024 b 229 1026 315 1038 272 1036 b 33 876 97 999 33 942 b 131 808 33 822 79 790 b 156 822 142 814 150 818 b 176 847 168 833 175 842 b 196 896 183 871 189 888 b 289 946 228 936 258 953 l 121 299 b 103 240 113 269 107 250 b -10 0 67 136 29 56 z m 378 908 b 481 760 431 876 465 828 l 550 468 l 282 467 z "},"B":{"ha":1040,"x_min":0,"x_max":0,"o":"m 78 846 l 78 210 b 21 0 78 100 64 49 l 515 0 b 588 1 547 0 572 0 b 821 39 697 6 775 18 b 974 164 894 69 944 111 b 707 563 1071 335 985 494 l 671 571 b 757 593 706 578 733 585 b 824 621 782 601 804 611 b 931 746 883 650 919 692 b 885 894 943 800 928 849 b 749 989 850 931 804 963 b 403 1035 663 1029 547 1044 b 314 1022 379 1033 350 1029 b 182 985 260 1010 217 997 b 64 926 147 972 108 953 b -10 875 40 913 17 896 l 0 819 z m 328 936 b 451 950 357 953 399 957 b 622 756 575 935 638 863 b 367 611 610 663 525 615 b 328 613 350 611 338 611 z m 328 528 b 408 533 358 532 385 535 b 614 472 496 531 565 510 b 703 332 667 432 696 386 b 406 81 718 178 621 85 b 328 85 371 81 346 82 z "},"C":{"ha":1067,"x_min":0,"x_max":0,"o":"m 819 939 b 611 1028 740 988 671 1017 b 415 1021 551 1040 486 1038 b 219 924 343 1006 278 972 b 50 635 129 850 79 768 b 61 329 26 529 29 428 b 307 32 106 185 179 97 b 417 -8 336 17 374 4 b 872 53 593 -54 744 -33 b 1042 276 963 115 1018 189 b 1018 261 1036 272 1022 263 b 788 161 929 208 853 175 b 594 172 724 149 660 151 b 290 539 424 221 322 343 b 310 806 274 646 281 735 b 436 943 339 878 382 924 b 632 931 508 969 574 965 b 728 797 682 901 714 857 b 713 621 744 726 739 667 b 604 556 686 575 650 554 b 510 624 554 557 519 585 b 528 628 511 624 517 625 b 610 725 590 646 610 671 b 576 785 610 750 599 769 b 500 794 556 800 531 803 b 433 731 471 786 449 765 b 458 563 410 678 418 622 b 638 454 499 503 558 467 b 961 606 783 431 892 481 b 988 669 971 622 979 643 b 990 868 1008 744 1008 811 b 983 890 989 874 988 881 b 819 939 938 885 882 901 z "},"D":{"ha":1040,"x_min":0,"x_max":0,"o":"m 51 839 l 67 849 l 82 860 l 82 146 b 47 33 82 108 71 71 l 21 0 l 376 0 b 640 29 492 0 581 10 b 997 465 861 103 975 243 b 997 567 1001 507 1001 540 b 704 972 976 751 879 888 b 506 1031 643 1001 576 1021 b 276 1029 418 1043 342 1042 b 21 908 165 1007 99 975 b -10 881 6 896 -4 886 l 17 813 l 33 826 z m 332 954 b 501 935 381 971 438 964 b 642 811 551 911 599 869 b 715 576 685 751 708 674 b 581 163 728 372 686 261 b 372 71 522 108 453 78 b 332 71 360 69 346 69 z "},"E":{"ha":978,"x_min":0,"x_max":0,"o":"m 658 0 b 846 -19 726 0 789 -7 b 868 26 858 4 867 19 b 914 143 886 78 901 117 b 968 231 926 169 944 199 b 750 213 914 254 854 250 b 704 192 729 206 714 199 b 461 81 600 126 518 90 b 329 81 401 71 357 71 l 329 522 b 560 508 400 532 478 526 b 772 419 639 490 710 460 l 811 394 l 864 415 b 757 653 819 486 783 565 l 742 710 b 604 643 710 685 664 663 b 390 615 544 625 472 615 b 329 618 378 615 357 617 l 329 936 b 356 938 335 936 350 938 b 447 928 390 938 421 935 b 504 907 471 922 489 915 b 707 801 608 847 676 811 b 924 792 811 764 867 764 b 839 931 892 835 864 882 b 793 1035 822 964 807 999 b 758 1024 783 1031 764 1025 b 613 1000 706 1008 657 1000 l 21 1000 b 67 932 42 979 57 956 b 79 871 75 911 79 892 l 79 133 b 67 74 79 117 75 97 b 19 0 57 47 42 22 l 658 0 z "},"F":{"ha":886,"x_min":0,"x_max":0,"o":"m 393 0 b 372 21 386 6 379 13 b 331 110 344 54 331 83 l 331 515 b 557 508 393 538 456 536 b 579 501 564 507 571 506 l 588 497 l 639 475 l 693 451 l 699 449 b 792 389 733 431 764 410 l 857 401 l 842 431 l 826 463 b 732 692 786 547 754 624 b 415 614 665 636 581 613 b 331 618 389 614 360 615 l 331 935 l 358 935 b 474 915 407 933 444 928 b 626 832 503 904 553 876 b 713 789 657 813 686 799 b 860 761 772 768 822 758 b 896 768 867 763 879 764 b 797 976 853 835 821 904 b 782 1035 793 989 788 1008 b 622 1000 742 1011 689 1000 l 21 1000 b 65 935 40 982 56 960 b 79 882 75 914 79 896 l 79 149 b 19 0 79 89 60 40 l 393 0 z "},"G":{"ha":1092,"x_min":0,"x_max":0,"o":"m 851 981 b 796 976 825 974 806 972 b 547 1032 697 1011 614 1031 b 349 990 481 1033 414 1019 b 144 822 271 956 203 900 b 56 631 101 764 72 700 b 76 297 26 513 33 401 b 297 47 119 193 193 110 b 504 -29 361 10 431 -17 b 718 -31 597 -44 668 -44 b 878 6 793 -10 846 3 b 1044 -29 951 13 1007 0 l 1008 329 b 1042 425 1006 354 1017 386 b 1061 449 1047 433 1054 442 l 650 449 b 626 451 646 449 638 450 b 574 539 572 464 551 504 b 610 511 582 528 594 518 b 635 503 618 507 626 504 b 718 581 679 493 719 531 b 615 658 717 626 678 658 b 515 608 581 658 547 642 b 483 513 494 585 483 553 b 585 375 483 444 517 399 b 617 369 600 371 610 369 l 754 357 l 783 61 b 454 161 685 22 553 57 b 363 311 421 196 390 246 b 328 410 350 342 338 375 b 299 661 301 500 292 585 b 578 940 321 890 435 986 b 678 879 604 932 638 911 b 807 788 735 833 778 803 b 1032 761 886 747 961 739 l 1013 794 l 1007 803 l 943 911 b 901 1003 932 931 918 961 b 851 981 883 990 867 983 z "},"H":{"ha":967,"x_min":0,"x_max":0,"o":"m 375 0 b 340 56 361 14 350 32 b 329 113 333 75 329 94 l 329 364 l 654 367 l 678 135 b 639 21 682 104 668 67 l 624 0 l 986 0 b 964 28 976 10 968 19 b 931 115 944 54 933 83 l 856 850 b 876 958 851 890 858 926 b 910 1000 883 971 894 985 l 529 1000 l 546 986 b 601 885 579 957 597 922 b 643 467 617 744 631 606 l 329 465 l 329 886 b 385 989 329 913 347 947 l 396 1000 l 21 1000 b 79 875 60 974 79 932 l 79 151 b 63 69 79 125 74 97 b 19 0 53 46 39 22 l 375 0 z "},"I":{"ha":406,"x_min":0,"x_max":0,"o":"m 39 985 b 79 910 65 957 79 932 l 79 115 b 46 26 79 83 68 54 l 25 3 l 35 0 l 386 0 b 329 118 349 24 329 64 l 329 906 b 364 981 329 926 340 951 b 383 1000 369 988 376 994 l 19 1000 b 39 985 26 996 32 990 z "},"J":{"ha":665,"x_min":0,"x_max":0,"o":"m 335 108 b 317 51 331 81 325 61 b 271 49 307 39 286 36 b 244 86 257 58 249 71 b 164 211 221 164 204 185 b 72 231 133 229 103 236 b -14 93 -4 215 -35 167 b 207 -33 6 21 79 -21 b 310 -33 240 -36 275 -36 b 624 161 475 -18 581 47 b 636 204 629 175 633 189 b 601 249 624 215 613 231 b 586 300 592 269 586 288 l 586 890 b 604 944 586 903 592 921 b 646 1000 614 965 628 983 l 272 1000 b 296 978 283 990 292 983 b 336 889 322 944 336 915 l 336 128 b 335 108 336 119 336 113 z "},"K":{"ha":1031,"x_min":0,"x_max":0,"o":"m 367 17 b 328 96 340 47 328 74 l 328 446 l 346 483 b 413 572 365 518 388 547 l 639 139 b 624 0 668 82 664 35 l 1031 0 l 986 43 b 944 92 971 58 957 75 l 567 765 l 628 839 b 644 853 632 843 638 849 b 758 867 694 885 732 889 l 772 856 l 788 844 b 851 817 811 829 833 819 b 983 851 918 807 950 817 b 1019 949 1013 881 1024 914 b 961 1026 1015 985 996 1011 b 832 1040 928 1042 885 1047 b 793 1035 815 1039 803 1036 b 681 992 754 1028 717 1013 b 574 910 632 963 597 936 l 328 636 l 328 900 b 353 978 328 928 336 954 b 372 1000 357 983 363 990 l 22 1000 b 40 978 29 993 35 986 b 78 896 65 942 78 914 l 78 108 b 42 22 78 81 65 51 b 19 0 35 14 28 7 l 381 0 z "},"L":{"ha":901,"x_min":0,"x_max":0,"o":"m 583 0 l 699 -8 b 794 -32 739 -10 771 -18 b 881 154 818 29 847 92 l 921 225 b 813 233 886 235 850 238 b 714 204 774 228 740 218 l 708 201 l 624 158 b 490 100 568 131 524 111 b 331 81 428 79 375 74 l 331 856 b 376 983 331 904 346 946 l 392 1000 l 22 1000 l 42 974 b 81 874 68 929 81 896 l 81 167 b 72 104 81 150 78 129 b 21 0 63 64 44 29 l 572 0 z "},"M":{"ha":1176,"x_min":0,"x_max":0,"o":"m 268 0 b 210 289 217 88 197 183 l 258 706 l 547 63 l 757 690 l 843 208 b 800 0 861 114 846 44 l 1196 0 l 1167 26 b 1111 129 1136 60 1118 94 l 978 874 b 1050 1000 968 928 999 979 l 674 1000 b 694 833 714 964 721 908 l 594 561 l 468 850 b 475 978 449 893 451 936 b 489 1000 479 986 485 993 l 92 1000 b 151 928 118 982 139 958 b 167 831 167 890 171 858 l 69 199 b -6 19 60 144 35 85 l -19 0 l 268 0 z "},"N":{"ha":972,"x_min":0,"x_max":0,"o":"m 100 321 b 71 133 100 251 90 189 b -8 0 54 88 28 43 l 319 0 b 271 57 301 17 285 36 b 211 275 240 101 221 174 b 208 335 210 301 208 321 l 208 760 l 721 -43 l 763 -26 l 774 -22 b 992 68 867 22 940 53 l 967 83 b 879 176 933 101 886 143 l 879 746 b 957 969 879 807 906 882 l 976 1000 l 664 1000 b 690 972 676 988 685 979 b 753 869 719 938 740 904 b 782 728 765 836 775 789 b 783 701 782 722 783 707 l 783 328 l 467 831 l 454 854 b 464 1000 431 911 435 960 l -31 1000 l -6 983 b 100 893 28 961 79 919 z "},"O":{"ha":1138,"x_min":0,"x_max":0,"o":"m 192 865 b 131 790 168 842 149 817 b 78 694 107 756 90 724 b 49 589 67 667 57 632 b 39 504 44 564 40 536 b 67 318 38 435 46 372 b 224 96 97 231 150 156 b 492 -21 297 35 388 -4 b 588 -28 526 -25 558 -28 b 988 158 763 -24 896 38 b 1088 404 1036 224 1069 306 b 1094 496 1092 429 1094 460 b 1064 690 1094 567 1085 632 b 797 996 1010 843 921 944 b 467 983 671 1047 561 1043 b 306 690 354 913 300 815 b 457 467 310 578 367 499 b 646 494 535 440 597 449 b 697 607 682 529 699 567 b 572 731 696 686 633 740 b 501 660 532 724 503 693 b 579 589 500 615 528 590 l 596 589 b 475 551 586 540 532 519 b 415 714 421 581 397 647 b 531 819 432 768 471 804 b 714 785 590 836 651 825 b 886 518 782 738 840 649 b 908 440 896 493 903 467 b 697 83 953 218 868 89 b 500 154 632 82 565 106 b 364 315 454 188 410 242 b 324 394 351 335 339 361 b 261 603 288 479 267 549 b 268 800 251 682 254 747 b 354 958 283 854 311 907 l 381 989 b 192 865 318 969 254 928 z "},"P":{"ha":894,"x_min":0,"x_max":0,"o":"m 40 975 b 79 861 67 940 79 901 l 79 146 b 19 0 79 86 60 38 l 408 0 b 332 119 368 24 343 63 b 329 149 331 132 329 142 l 329 922 b 372 929 347 926 363 928 b 582 849 467 939 536 911 b 613 789 594 831 606 811 b 586 611 633 721 624 663 b 533 556 569 588 551 568 b 433 479 485 522 451 497 b 392 426 415 463 401 444 b 360 297 365 378 356 335 b 421 197 367 244 388 211 b 542 222 475 174 515 182 b 556 275 554 240 558 258 b 447 322 546 319 519 329 b 432 319 443 322 436 319 b 500 425 438 363 460 397 b 556 458 524 443 543 454 b 589 472 563 463 582 471 b 789 571 701 521 768 553 b 878 804 869 636 899 714 b 731 972 863 876 813 932 b 592 1000 690 990 644 1000 l 19 1000 b 40 975 28 992 35 983 z "},"Q":{"ha":1103,"x_min":0,"x_max":0,"o":"m 192 874 b 42 535 103 778 53 664 b 43 433 39 506 39 472 b 158 146 56 318 93 222 b 493 -22 243 44 356 -11 b 806 57 622 -33 726 -7 l 824 33 l 832 21 l 854 -8 b 910 -99 872 -33 892 -64 l 943 -60 b 1024 32 965 -33 992 -3 b 1103 117 1056 68 1082 96 l 1079 128 b 964 204 1033 150 996 175 l 978 231 b 1044 376 1013 296 1035 344 b 1063 500 1056 408 1061 450 b 1061 557 1063 525 1063 544 b 1024 732 1057 619 1044 678 b 872 944 986 825 936 896 b 632 1028 799 1003 718 1031 b 350 853 496 1024 401 965 b 333 806 343 838 338 821 l 371 821 l 401 835 l 408 836 b 732 735 497 865 626 829 b 797 664 753 717 774 693 b 892 486 843 606 874 546 b 892 265 917 400 917 326 l 714 426 b 669 497 693 446 678 469 l 665 522 l 625 492 b 525 419 599 471 565 447 b 429 357 486 393 454 372 l 461 339 b 558 271 501 313 535 290 l 560 268 l 615 222 l 674 172 l 733 121 b 553 133 682 96 621 100 b 394 263 501 160 449 203 b 264 582 324 340 281 447 b 276 772 257 644 261 708 b 313 883 286 818 299 854 b 381 981 328 913 350 946 b 415 1019 392 994 403 1007 b 192 874 336 997 263 949 z "},"R":{"ha":985,"x_min":0,"x_max":0,"o":"m 79 132 b 78 110 79 128 78 115 b 19 0 72 63 53 26 l 381 0 b 363 22 374 7 368 14 b 329 119 340 58 329 90 l 329 501 l 404 501 l 581 131 b 586 64 590 111 592 89 b 568 19 583 47 578 32 b 553 0 564 13 560 6 l 985 0 b 901 69 956 15 928 39 b 868 117 883 93 872 108 l 653 507 l 706 517 b 860 582 763 529 814 551 b 960 753 922 625 956 682 b 883 924 964 824 939 881 b 575 1000 818 975 715 1000 l 19 1000 b 79 872 60 972 79 929 z m 488 924 b 544 910 500 924 519 919 b 651 815 597 892 633 860 b 657 700 669 775 671 738 b 488 611 633 640 576 610 b 329 613 435 611 382 611 l 329 929 z "},"S":{"ha":965,"x_min":0,"x_max":0,"o":"m 140 -8 b 314 3 186 14 243 18 l 349 -4 b 506 -31 417 -21 468 -29 b 681 -18 581 -35 639 -31 b 800 29 733 -3 774 14 b 878 101 826 46 853 69 b 944 335 935 172 954 236 b 913 440 942 368 931 403 b 810 560 886 492 853 532 b 594 649 768 589 696 618 l 474 685 b 328 744 397 707 349 726 b 279 844 293 771 278 804 b 336 939 282 885 301 917 b 560 904 396 976 471 965 l 678 822 l 682 821 b 710 808 683 819 693 815 b 865 814 771 788 822 789 l 739 1008 b 675 997 719 1003 699 999 b 606 1001 646 996 624 997 l 574 1006 l 499 1018 b 358 1029 436 1028 390 1032 b 138 953 260 1021 186 996 b 51 779 86 907 57 849 b 185 529 44 675 89 592 b 281 479 226 503 258 486 b 442 432 347 458 375 451 b 706 115 725 347 800 243 b 540 35 667 58 618 33 b 501 39 526 35 514 36 b 425 67 464 47 438 57 b 183 211 326 147 246 196 b 10 197 88 235 44 231 b 140 -8 40 154 83 85 z "},"T":{"ha":925,"x_min":0,"x_max":0,"o":"m 110 767 b 164 799 138 778 156 789 l 192 828 b 278 910 235 872 263 900 b 335 926 293 921 313 926 l 335 126 b 315 58 335 104 328 82 b 261 0 303 35 285 15 l 658 0 b 607 50 638 13 621 29 b 585 111 592 75 585 96 l 585 928 b 667 886 619 939 635 931 l 679 869 b 756 793 708 832 735 807 b 842 761 776 779 806 768 b 944 763 876 756 911 756 b 849 999 907 824 875 903 b 839 1039 844 1010 842 1024 b 771 1015 822 1032 800 1024 b 607 1000 733 1006 678 1000 l 258 1000 b 196 1007 244 1000 224 1003 b 96 1040 154 1014 121 1025 l 69 967 b 22 840 47 904 32 861 b -19 764 13 819 -1 793 b 110 767 24 749 67 749 z "},"U":{"ha":925,"x_min":0,"x_max":0,"o":"m 60 244 b 103 78 58 171 72 115 b 281 -14 135 40 193 10 b 450 -32 326 -26 382 -32 b 769 40 592 -32 699 -8 b 864 219 840 89 872 149 l 821 575 b 808 819 808 688 804 768 b 853 975 813 871 828 924 l 865 1000 l 571 1000 l 589 981 b 653 890 618 949 640 919 b 694 744 665 861 679 813 b 706 683 700 721 704 700 l 763 250 b 707 107 771 192 753 144 b 511 63 661 69 596 56 b 335 156 424 69 364 100 b 310 250 314 193 306 224 l 379 881 b 443 1000 385 932 406 972 l 72 1000 b 115 933 96 981 110 958 b 119 811 122 910 124 868 b 117 786 119 806 117 792 l 61 278 b 60 244 60 271 60 260 z "},"V":{"ha":914,"x_min":0,"x_max":0,"o":"m -8 982 b 38 921 14 961 29 940 l 429 -31 b 575 19 494 -7 543 10 b 781 71 640 39 708 56 b 753 86 771 75 763 79 b 625 200 697 118 654 157 l 760 632 b 786 708 769 663 778 688 b 933 1000 835 835 883 932 l 625 1000 b 646 978 635 990 642 983 b 690 885 672 943 688 913 b 676 742 694 858 689 810 b 660 675 675 732 669 710 l 557 315 l 340 843 b 322 950 317 900 313 917 b 351 1000 328 969 338 986 l -31 1000 l -8 982 z "},"W":{"ha":1403,"x_min":0,"x_max":0,"o":"m -1 976 b 65 851 29 933 51 892 l 369 -28 l 665 61 b 571 175 624 88 592 126 b 561 203 567 183 564 193 l 681 518 l 911 -14 b 1113 47 968 10 1036 31 l 1178 61 l 1208 68 b 1101 192 1164 94 1140 119 l 1092 210 l 1171 485 l 1189 546 b 1290 810 1232 669 1267 757 b 1367 939 1315 863 1340 906 b 1422 1000 1382 960 1401 979 l 1093 1000 b 1153 903 1128 975 1147 943 b 1135 693 1158 864 1153 794 b 1104 572 1125 644 1115 604 l 1028 343 l 739 1007 l 507 340 l 326 861 b 318 903 322 874 319 888 b 339 1000 314 939 321 971 l -19 1000 b -1 976 -12 990 -6 983 z "},"X":{"ha":1010,"x_min":0,"x_max":0,"o":"m 347 0 b 365 308 272 49 263 151 l 425 400 l 554 194 l 565 175 b 585 18 606 104 611 74 l 575 0 l 1029 0 b 957 61 1001 21 978 40 b 861 176 914 104 882 143 l 603 586 l 781 814 b 975 1000 839 888 904 950 l 621 1000 l 642 979 b 654 807 682 931 686 872 l 642 785 l 556 661 l 457 819 b 432 986 413 890 408 926 l 439 1000 l 0 1000 b 46 969 14 993 29 983 b 100 917 74 946 92 929 l 379 472 l 251 297 b 47 58 194 221 126 142 l -10 0 l 347 0 z "},"Y":{"ha":910,"x_min":0,"x_max":0,"o":"m -4 993 b 35 956 15 982 28 969 l 282 456 l 310 410 b 315 343 314 400 315 378 l 315 108 b 269 19 315 82 300 53 b 249 0 265 14 258 7 l 636 0 b 608 18 625 4 615 11 b 565 100 579 42 565 68 l 565 383 l 725 683 l 768 764 l 772 774 b 894 956 810 839 851 900 b 929 1000 910 976 921 990 l 619 1000 b 667 900 646 971 661 938 b 656 789 672 851 668 815 l 528 522 l 363 856 b 353 879 361 863 353 878 b 361 1000 340 924 343 964 l -19 1000 b -4 993 -18 1000 -12 997 z "},"Z":{"ha":913,"x_min":0,"x_max":0,"o":"m 558 0 b 699 -3 632 0 679 -1 b 775 -19 719 -4 744 -10 l 797 28 b 856 139 813 58 832 96 b 913 240 879 182 897 217 b 661 176 843 256 760 233 l 557 115 l 553 114 b 528 103 547 110 533 104 b 393 79 483 88 439 79 l 369 79 l 350 79 l 883 1000 l 254 1000 b 175 1011 224 1000 197 1004 l 156 1018 l 153 1000 l 150 990 b 75 785 142 958 117 889 b 61 753 71 774 67 763 b 140 758 92 751 118 753 b 214 782 176 765 201 774 l 279 822 b 429 903 351 865 401 892 b 528 924 458 914 490 921 b 549 925 532 925 539 925 l 138 211 b -19 0 83 118 32 47 l 558 0 z "},"[":{"ha":635,"x_min":0,"x_max":0,"o":"m 504 -314 l 314 -314 l 314 839 l 504 839 l 504 926 l 157 926 l 157 -401 l 504 -401 z "},"\\":{"ha":931,"x_min":0,"x_max":0,"o":"m 931 -401 l 300 926 l 157 926 l 786 -401 z "},"]":{"ha":635,"x_min":0,"x_max":0,"o":"m 129 926 l 129 839 l 319 839 l 319 -314 l 129 -314 l 129 -401 l 476 -401 l 476 926 z "},"^":{"ha":694,"x_min":0,"x_max":0,"o":"m 363 972 l -47 381 l 243 381 l 449 678 l 631 381 l 740 381 l 376 972 z "},"_":{"ha":800,"x_min":0,"x_max":0,"o":"m 0 40 l 0 0 l 800 0 l 800 40 z "},"`":{"ha":286,"x_min":0,"x_max":0,"o":"m 88 990 l -79 990 l 163 772 l 224 772 z "},"a":{"ha":710,"x_min":0,"x_max":0,"o":"m 358 506 b 192 440 288 488 232 465 b 63 317 129 403 86 361 b 39 143 31 260 24 201 b 392 10 76 -1 210 -61 b 447 40 404 15 424 25 l 453 0 l 729 0 b 690 43 714 13 700 26 b 674 90 681 60 675 75 l 624 518 b 292 735 601 703 488 781 b 186 692 247 725 213 710 b 82 539 124 649 89 599 l 107 554 b 383 550 269 654 372 624 l 389 514 b 358 506 388 514 365 510 z m 440 106 b 372 72 425 82 401 71 b 303 113 343 74 321 86 b 274 253 279 146 269 193 b 294 340 276 286 283 315 b 396 464 317 394 350 436 z "},"b":{"ha":747,"x_min":0,"x_max":0,"o":"m 33 968 b 63 915 53 947 63 931 l 63 129 b 49 -17 63 78 58 29 b 125 15 72 1 99 13 b 188 13 153 19 174 18 b 353 -31 260 -14 315 -28 b 619 93 471 -37 547 -3 b 711 332 671 161 701 240 b 660 626 725 457 708 556 b 422 733 592 722 526 754 b 306 669 382 726 343 704 b 292 657 301 665 296 658 l 292 1050 b 90 986 226 1017 160 996 b 19 981 58 982 35 981 b 33 968 24 978 28 974 z m 292 556 b 369 608 292 590 326 615 b 458 404 421 597 451 529 b 461 338 460 375 461 353 b 450 219 460 283 456 244 b 374 46 424 86 406 51 b 292 97 329 36 292 64 z "},"c":{"ha":672,"x_min":0,"x_max":0,"o":"m 360 583 b 482 432 349 490 397 432 b 588 482 528 431 564 447 b 601 608 611 517 617 560 b 422 736 581 678 521 721 b 203 690 346 749 272 733 b 146 646 182 678 164 664 b 35 404 81 583 50 517 b 67 175 22 322 33 246 b 211 17 100 104 149 51 b 310 -19 242 -1 275 -12 b 529 -1 397 -35 469 -29 b 653 132 597 32 638 76 l 628 122 b 271 325 476 72 344 142 b 243 439 253 368 244 406 b 258 594 239 501 244 553 b 396 657 281 665 350 692 b 360 583 376 638 364 613 z "},"d":{"ha":733,"x_min":0,"x_max":0,"o":"m 319 747 b 119 647 243 753 176 719 b 31 350 63 576 32 476 b 54 181 29 290 38 233 b 144 33 78 111 107 63 b 414 33 229 -36 319 -36 l 435 50 l 435 0 l 714 0 b 696 22 707 7 701 14 b 665 115 675 49 665 79 l 665 1050 b 458 985 600 1017 532 994 b 382 981 433 982 408 981 l 399 968 b 435 911 422 947 435 929 l 435 699 b 319 747 403 728 364 744 z m 435 151 b 421 114 435 139 431 126 b 333 108 399 81 361 79 b 290 194 314 128 300 157 b 274 376 282 232 276 293 b 286 553 271 450 275 510 b 317 625 296 588 306 611 b 414 622 340 654 385 656 b 435 554 428 608 435 586 z "},"e":{"ha":718,"x_min":0,"x_max":0,"o":"m 660 511 b 529 693 633 599 589 660 b 321 732 457 733 408 743 b 217 697 283 726 249 715 b 43 465 131 651 72 575 b 36 282 28 407 25 346 b 164 58 54 178 90 115 b 303 -10 203 28 249 6 b 532 -10 381 -31 457 -31 b 671 69 596 8 642 35 b 708 129 686 88 699 108 l 671 117 b 433 136 588 93 508 99 b 276 315 358 174 306 233 b 263 364 272 329 267 346 l 665 364 b 660 511 676 413 675 463 z m 239 442 b 235 474 236 461 235 472 b 242 590 229 515 232 554 b 351 635 258 642 307 661 b 422 522 386 615 410 578 b 426 442 429 478 428 453 z "},"f":{"ha":417,"x_min":0,"x_max":0,"o":"m 71 125 b 56 63 71 107 65 86 b 18 0 47 40 35 19 l 358 0 b 340 24 351 10 344 17 b 301 139 314 64 301 101 l 301 619 l 378 619 l 378 710 l 301 710 b 271 797 303 742 300 753 l 207 900 b 197 935 201 911 199 922 b 199 967 196 947 196 957 b 263 999 206 999 239 1014 b 288 956 283 988 292 974 b 283 925 285 946 283 936 b 401 808 276 843 331 793 b 464 965 464 824 496 894 b 382 1033 450 993 422 1015 b 228 1049 344 1049 293 1054 b 76 1007 160 1044 110 1031 b 14 911 40 981 19 949 b 71 763 4 843 22 793 l 71 710 l 10 710 l 10 619 l 71 619 z "},"g":{"ha":742,"x_min":0,"x_max":0,"o":"m 640 713 b 586 708 614 707 596 706 b 414 740 507 728 449 739 b 192 681 321 746 260 729 b 85 556 151 651 115 610 b 33 383 57 504 40 447 b 32 299 29 350 29 322 b 131 50 42 189 75 107 b 315 -15 186 -7 247 -28 b 428 54 361 -7 399 17 l 442 36 l 447 28 l 474 -7 l 494 -36 b 486 -108 506 -54 503 -79 b 406 -171 469 -137 443 -158 b 343 -178 385 -176 364 -179 b 282 -164 314 -175 293 -171 b 179 -99 231 -131 197 -108 b 128 -81 161 -89 144 -83 b 68 -87 104 -76 85 -79 b 50 -194 24 -108 15 -160 b 115 -233 64 -208 86 -221 b 354 -250 156 -249 235 -254 b 574 -211 439 -246 513 -233 b 699 58 729 -154 769 -51 l 665 113 l 665 615 b 682 708 665 632 671 663 l 689 731 b 640 713 674 721 657 715 z m 435 232 b 425 153 435 192 432 165 b 343 140 410 125 375 118 b 272 428 299 175 275 271 b 276 519 272 467 274 497 b 306 619 282 563 292 596 b 410 638 329 664 383 671 b 424 618 414 633 418 628 b 435 582 431 603 435 590 z "},"h":{"ha":728,"x_min":0,"x_max":0,"o":"m 349 0 b 299 118 315 31 299 69 l 299 554 b 349 610 299 581 319 603 b 428 557 389 617 428 590 l 428 107 b 393 0 428 61 417 26 l 708 0 b 658 122 675 31 658 71 l 658 581 b 589 703 658 632 635 674 b 417 726 543 733 486 742 b 299 664 367 715 328 694 l 299 1050 b 22 981 211 1011 118 988 b 54 947 36 971 47 960 b 68 901 64 932 68 917 l 68 104 b 38 21 68 78 58 50 b 19 0 31 11 25 4 l 349 0 z "},"i":{"ha":368,"x_min":0,"x_max":0,"o":"m 179 807 b 307 925 256 811 303 858 b 174 1050 311 1003 261 1051 b 42 922 89 1050 36 996 b 179 807 47 854 106 806 z m 349 0 b 318 43 339 10 328 25 b 299 104 306 68 299 89 l 299 750 l 250 733 b 133 697 218 721 179 710 b 21 681 88 686 50 681 b 69 593 53 661 69 632 l 69 106 b 40 24 69 78 60 50 b 19 0 33 14 26 7 z "},"j":{"ha":368,"x_min":0,"x_max":0,"o":"m 88 -235 b 214 -201 143 -228 185 -217 b 300 -83 271 -169 300 -129 l 300 750 b 174 700 254 726 211 710 b 21 681 128 688 76 681 l 36 668 b 71 603 60 644 71 624 l 71 -125 b 47 -185 71 -143 63 -162 b 0 -229 36 -203 21 -217 b 88 -235 29 -236 58 -237 z m 181 807 b 308 925 257 811 304 858 b 174 1050 313 1003 261 1051 b 42 922 90 1050 36 996 b 181 807 47 854 107 806 z "},"k":{"ha":754,"x_min":0,"x_max":0,"o":"m 343 0 b 313 46 329 15 319 31 b 299 100 303 65 299 83 l 299 274 l 338 322 l 443 82 b 433 15 451 61 449 39 b 421 0 431 8 426 4 l 764 0 l 743 17 b 689 96 726 32 708 58 l 494 464 l 656 638 l 690 675 l 693 678 b 739 710 704 689 719 700 l 429 710 b 439 694 432 707 435 701 b 447 579 467 646 469 607 l 299 396 l 299 1050 b 97 985 239 1017 171 994 b 19 981 64 981 38 979 b 51 933 35 964 44 949 b 68 867 63 911 68 889 l 68 814 l 68 124 b 19 0 68 72 51 32 l 343 0 z "},"l":{"ha":369,"x_min":0,"x_max":0,"o":"m 350 0 b 300 122 317 26 300 68 l 300 1050 b 238 1021 279 1039 258 1029 b 21 981 167 994 94 981 b 69 883 53 964 69 932 l 69 164 b 19 0 69 89 53 35 l 350 0 z "},"m":{"ha":1088,"x_min":0,"x_max":0,"o":"m 50 633 b 68 588 63 610 68 594 l 68 110 b 54 50 68 92 64 72 b 22 0 44 29 35 13 l 328 0 b 314 22 324 7 318 14 b 297 93 303 44 297 68 l 297 535 b 361 611 297 578 324 607 b 428 549 399 613 428 583 l 428 97 b 418 47 428 82 425 65 b 393 0 413 29 404 14 l 690 0 b 657 107 668 28 657 64 l 657 514 b 668 574 657 540 661 561 b 751 600 685 607 724 618 b 767 588 756 599 763 592 b 788 538 781 571 788 554 l 788 111 b 754 0 788 68 776 32 l 1068 0 b 1049 25 1058 11 1053 19 b 1018 113 1028 57 1018 86 l 1018 618 b 867 746 1018 681 963 733 b 686 693 808 753 749 736 b 651 663 674 683 661 674 l 632 683 b 429 738 571 744 524 760 b 297 658 378 725 335 699 l 297 750 l 250 733 b 132 697 218 721 178 710 b 19 681 86 686 49 681 b 50 633 32 665 42 650 z "},"n":{"ha":728,"x_min":0,"x_max":0,"o":"m 329 0 b 297 38 308 10 297 22 b 299 78 297 50 297 64 l 299 521 b 344 617 299 583 311 607 b 429 574 394 628 429 607 l 429 79 b 414 28 429 67 424 49 b 399 0 410 18 406 10 l 708 0 b 697 22 704 6 699 18 b 658 158 671 78 658 124 l 658 554 l 658 585 b 464 746 650 697 585 751 b 324 692 422 744 375 726 l 299 675 l 299 750 l 251 732 b 135 696 219 719 181 708 b 22 679 89 685 51 679 b 39 664 31 674 36 668 b 69 600 60 643 69 621 l 69 88 b 43 19 69 63 61 40 b 19 0 36 13 28 6 l 329 0 z "},"o":{"ha":736,"x_min":0,"x_max":0,"o":"m 31 324 b 83 139 35 249 51 188 b 440 -19 171 1 300 -53 b 658 153 533 3 606 60 b 704 314 683 199 699 253 b 676 521 711 390 701 460 b 417 740 626 644 532 724 b 107 607 293 758 190 714 b 35 419 69 558 44 496 l 31 372 z m 289 557 b 371 667 289 635 319 671 b 444 561 415 663 435 639 b 446 526 446 553 446 542 l 446 157 b 392 46 446 92 428 56 b 289 174 329 29 289 69 z "},"p":{"ha":729,"x_min":0,"x_max":0,"o":"m 67 -111 b 40 -192 67 -131 58 -157 b 21 -219 35 -201 28 -210 l 342 -219 b 308 -168 329 -207 318 -189 b 296 -126 300 -149 296 -135 l 296 -15 b 368 19 324 -3 347 8 b 624 218 492 82 576 149 b 686 339 656 264 676 304 b 699 463 697 374 701 415 b 663 621 694 529 683 582 b 338 700 597 750 489 776 b 296 675 326 694 313 686 l 296 750 b 92 686 231 717 163 696 b 19 681 60 682 36 681 b 67 581 51 654 67 621 z m 296 586 b 433 535 340 625 406 603 b 453 418 443 511 450 472 b 428 238 457 347 449 286 b 368 128 407 186 386 149 b 296 76 350 107 326 89 z "},"q":{"ha":763,"x_min":0,"x_max":0,"o":"m 653 708 b 594 708 628 704 608 704 b 376 740 508 735 436 744 b 179 671 303 733 236 711 b 147 644 164 660 154 651 b 26 311 60 568 25 474 b 89 96 29 218 50 147 b 242 -15 139 33 190 -3 b 386 -14 297 -29 346 -29 l 388 -14 l 422 1 l 458 18 l 458 -124 b 417 -219 458 -167 444 -199 l 739 -219 b 690 -121 707 -201 690 -168 l 690 649 b 697 696 690 663 693 678 l 710 731 b 653 708 692 718 672 711 z m 460 110 b 326 156 421 72 365 88 b 281 368 301 201 286 272 b 282 469 279 397 279 431 b 408 669 299 629 347 690 b 458 585 440 658 457 631 b 460 539 460 569 460 554 l 460 525 z "},"r":{"ha":582,"x_min":0,"x_max":0,"o":"m 46 633 b 68 567 61 613 68 590 l 68 94 b 39 21 68 72 58 47 b 19 0 32 11 25 4 l 353 0 b 332 17 344 4 338 10 b 299 86 310 38 299 60 l 299 515 l 311 525 b 372 553 326 540 354 557 b 439 508 388 535 410 521 b 601 608 524 469 597 513 b 456 742 606 696 540 753 b 388 718 428 738 406 731 b 319 647 369 706 347 682 b 299 618 311 638 304 628 l 299 750 l 228 726 l 157 704 l 88 682 l 19 661 b 46 633 31 651 39 643 z "},"s":{"ha":733,"x_min":0,"x_max":0,"o":"m 122 15 b 154 -32 128 8 147 -21 b 217 -8 178 -21 199 -12 b 285 1 249 0 271 3 b 514 -1 390 -14 467 -15 b 665 113 582 19 633 57 b 575 435 742 246 704 369 b 540 449 560 442 549 447 l 354 503 b 271 533 311 517 283 526 b 215 589 242 553 222 571 b 274 681 199 629 229 676 b 375 644 301 682 335 671 b 496 576 429 610 469 586 b 640 569 546 558 594 556 l 622 600 l 576 672 l 538 742 b 469 722 511 729 489 724 b 361 738 450 722 414 728 b 136 696 268 754 193 740 b 40 519 76 650 44 590 b 154 333 36 438 74 376 b 194 315 169 325 183 319 l 419 240 b 497 206 460 228 485 215 b 513 74 551 164 556 119 b 428 49 492 53 463 44 b 354 67 392 53 367 58 b 19 151 194 176 86 197 b 122 15 57 106 90 61 z "},"t":{"ha":433,"x_min":0,"x_max":0,"o":"m 69 138 b 71 108 69 125 69 115 b 281 -28 86 13 160 -40 b 342 -11 304 -25 324 -19 b 453 114 403 18 440 60 b 435 104 449 110 442 107 b 399 92 422 99 410 94 b 299 146 338 79 299 103 l 299 619 l 419 619 l 419 710 l 299 710 l 299 889 b 222 813 274 863 249 838 b -6 619 154 747 79 682 l 69 619 z "},"u":{"ha":731,"x_min":0,"x_max":0,"o":"m 38 667 b 71 606 60 647 71 626 l 71 200 b 72 167 71 185 71 174 b 304 -17 82 8 160 -53 b 392 22 338 -8 367 4 b 432 54 401 29 415 39 l 432 0 l 711 0 l 692 21 b 661 104 671 50 661 78 l 661 750 l 613 733 b 493 697 581 721 540 710 b 379 681 447 686 408 681 b 417 638 396 668 408 654 b 432 603 426 622 432 610 l 432 167 b 371 104 432 135 404 106 b 301 167 333 103 301 132 l 301 750 b 165 700 254 726 208 710 b 19 681 114 688 65 682 b 38 667 26 676 32 672 z "},"v":{"ha":751,"x_min":0,"x_max":0,"o":"m -3 694 b 50 611 21 669 38 642 l 300 -25 b 490 4 364 -12 428 -3 b 564 10 506 6 531 8 b 554 21 563 11 556 17 b 514 138 506 76 499 94 l 604 389 b 771 710 653 525 708 632 l 475 710 b 518 458 529 665 543 582 b 508 419 517 449 514 436 l 446 232 l 319 551 b 326 710 293 617 296 669 l -19 710 b -3 694 -15 707 -10 701 z "},"w":{"ha":1024,"x_min":0,"x_max":0,"o":"m -3 694 b 39 635 19 674 33 653 l 247 -40 l 292 -31 b 403 -10 322 -24 360 -17 b 507 6 446 -3 481 3 b 436 124 475 36 451 75 l 429 151 l 501 276 l 631 -36 b 764 -11 671 -26 715 -18 b 875 0 792 -7 829 -4 b 854 25 867 8 860 17 b 825 71 843 38 833 53 b 813 139 813 101 808 124 l 925 443 l 969 563 l 976 578 b 1043 710 994 622 1017 667 l 778 710 b 796 681 783 703 789 693 b 825 585 813 649 822 617 b 818 449 829 553 826 507 b 807 400 817 435 813 418 b 760 242 790 347 775 294 l 569 679 l 388 282 l 301 563 l 297 583 b 325 710 290 638 299 681 l -19 710 b -3 694 -11 704 -6 699 z "},"x":{"ha":728,"x_min":0,"x_max":0,"o":"m 261 0 b 243 28 253 10 247 18 l 240 33 l 232 54 b 240 128 219 88 222 100 l 317 233 l 396 99 b 379 0 417 61 411 22 l 747 0 b 706 44 738 10 724 24 b 665 94 681 74 667 90 l 475 417 l 531 496 b 699 678 563 542 619 603 b 735 710 711 689 722 700 l 460 710 b 492 653 476 696 488 676 b 488 594 496 624 494 604 l 428 497 l 276 753 b -1 674 189 714 96 688 b 29 660 7 671 17 667 b 106 590 64 640 90 617 l 263 324 l 117 140 b -19 0 72 86 26 39 l 261 0 z "},"y":{"ha":699,"x_min":0,"x_max":0,"o":"m -3 660 b 43 599 19 638 35 617 l 306 4 b 296 -37 308 -6 306 -19 b 271 -67 286 -53 278 -62 b 238 -67 257 -74 246 -74 l 233 -62 l 210 -46 l 197 -37 b 114 -14 169 -22 142 -14 b 25 -60 74 -15 44 -31 b 19 -160 7 -89 4 -122 b 119 -236 35 -196 68 -221 b 326 -175 192 -258 261 -237 b 390 -74 353 -149 374 -115 l 581 414 b 690 653 593 446 631 526 l 718 710 l 456 710 b 504 613 481 682 497 650 b 500 496 513 571 511 532 l 432 289 l 294 606 l 257 685 b 238 753 253 696 246 718 b 46 693 160 728 96 708 b -19 675 35 692 -3 679 l -3 660 z "},"z":{"ha":731,"x_min":0,"x_max":0,"o":"m 426 0 b 532 -6 478 0 513 -1 b 600 -32 553 -10 575 -18 b 651 67 622 13 639 46 b 721 172 672 104 696 139 b 650 185 699 182 675 186 b 586 167 625 182 604 176 b 413 76 508 121 450 92 b 297 53 375 63 336 54 l 718 710 l 413 710 b 236 714 324 710 265 711 b 136 742 207 718 174 726 l 125 701 b 96 606 118 675 108 643 b 63 518 83 568 72 539 b 129 521 90 514 113 515 b 214 568 147 528 175 543 b 413 651 279 611 346 639 l 140 235 b 56 114 118 201 90 161 l -31 0 l 426 0 z "},"{":{"ha":694,"x_min":0,"x_max":0,"o":"m 144 336 b 233 229 211 332 235 306 l 232 144 l 231 33 b 229 -42 231 7 229 -37 b 460 -246 229 -192 292 -246 l 533 -246 l 557 -247 l 557 -207 b 428 -51 464 -206 428 -161 l 428 35 l 426 128 l 426 197 b 264 356 426 292 375 340 l 264 360 b 400 413 335 369 379 388 b 431 567 421 439 431 490 l 431 675 b 454 842 431 760 439 815 b 558 882 469 868 504 881 l 558 922 l 529 921 l 465 921 b 278 860 374 921 311 900 b 232 636 246 819 231 744 l 233 553 b 235 503 235 547 235 531 l 235 490 b 144 378 235 408 215 383 l 144 336 z "},"|":{"ha":694,"x_min":0,"x_max":0,"o":"m 436 -232 l 436 926 l 260 926 l 260 -232 z "},"}":{"ha":694,"x_min":0,"x_max":0,"o":"m 550 378 b 460 497 479 383 458 410 l 461 572 l 463 646 b 417 864 464 754 449 826 b 231 921 385 901 322 921 l 165 921 l 139 922 l 139 882 b 265 729 229 878 265 836 l 265 660 l 265 575 l 265 494 b 431 360 265 419 321 375 l 431 356 b 268 197 318 340 268 292 l 268 128 l 268 35 l 267 -51 b 138 -207 265 -167 232 -206 l 138 -246 l 161 -246 l 235 -246 b 465 -42 403 -246 465 -192 l 465 -28 l 465 -26 l 465 -25 l 465 -24 l 465 -22 l 465 -21 l 465 -19 l 465 -18 l 465 -17 l 465 -15 l 465 -14 l 465 -12 l 465 33 l 463 144 l 461 229 b 550 336 460 303 483 332 l 550 378 z "},"~":{"ha":926,"x_min":0,"x_max":0,"o":"m 686 1018 b 594 965 657 983 626 965 b 485 993 571 965 533 975 b 378 1019 436 1011 400 1019 b 201 851 315 1019 267 974 l 239 829 l 251 842 b 332 882 278 868 304 882 b 413 865 357 882 383 876 l 450 850 b 540 829 485 836 515 829 b 725 994 610 829 671 885 l 686 1018 z "}," ":{"ha":403,"x_min":0,"x_max":0,"o":""},"¡":{"ha":425,"x_min":0,"x_max":0,"o":"m 71 158 b 99 28 65 101 75 57 b 256 -17 139 -21 190 -36 b 356 121 325 3 358 49 b 351 156 356 133 354 144 l 231 681 l 175 678 l 76 192 b 71 158 75 185 72 174 z m 115 776 b 261 750 153 740 201 732 b 338 828 299 761 325 788 b 247 999 361 907 326 976 b 176 999 224 1006 200 1006 b 76 856 110 981 69 921 b 115 776 79 824 92 797 z "},"¢":{"ha":736,"x_min":0,"x_max":0,"o":"m 318 750 b 64 492 172 700 97 624 b 74 249 43 408 46 328 b 297 17 117 125 175 63 b 349 1 307 13 324 8 l 349 -164 l 429 -161 l 429 -15 b 479 -7 446 -14 463 -11 b 686 150 600 21 658 68 b 465 153 613 117 539 118 b 296 349 392 189 336 254 b 267 476 279 389 269 431 l 267 515 b 310 669 271 594 285 646 b 432 689 353 711 393 718 b 394 618 413 665 400 642 b 478 465 378 547 410 489 b 542 463 499 458 521 457 b 646 613 619 481 654 531 b 489 763 639 689 583 744 l 461 768 l 443 771 l 443 888 l 363 890 l 363 763 b 318 750 347 760 332 756 z "},"£":{"ha":967,"x_min":0,"x_max":0,"o":"m 32 -51 b 49 -24 36 -40 42 -31 b 243 33 78 19 125 33 b 385 24 292 33 339 31 l 617 -8 b 796 49 692 -19 751 0 b 813 69 803 56 808 63 l 817 76 l 869 158 b 921 240 900 204 917 231 b 922 244 921 242 921 243 l 926 256 l 911 264 l 907 258 l 899 249 l 889 238 l 881 231 b 760 196 854 207 814 196 b 743 197 753 196 747 196 l 531 226 b 510 229 526 228 515 228 b 326 207 431 233 369 225 b 376 256 342 219 358 236 l 392 272 l 413 294 b 483 439 447 335 471 383 b 488 465 486 456 488 464 b 525 463 504 464 517 463 b 675 474 601 458 651 461 b 743 574 699 486 721 519 l 750 592 l 738 600 b 682 556 728 576 708 563 b 532 553 656 549 606 549 b 497 556 524 553 513 554 l 497 683 l 497 742 l 499 758 l 500 786 b 544 899 504 838 518 875 b 661 925 582 933 621 943 b 724 835 696 910 717 881 b 696 731 731 796 721 761 l 706 718 l 856 857 b 814 981 890 886 876 946 b 601 1004 767 1004 696 1013 b 379 919 515 996 442 968 b 243 643 281 843 243 765 l 243 557 b 228 556 236 557 232 557 b 144 503 183 549 167 538 l 136 486 l 135 482 l 117 439 l 115 433 l 106 411 l 117 406 b 122 415 117 407 121 411 b 228 472 146 447 181 465 b 249 474 232 472 243 474 l 249 363 l 247 354 l 243 322 l 240 300 l 238 283 l 233 267 b 171 185 221 229 200 201 b 133 169 164 181 151 175 l 100 161 l 96 160 b 58 122 75 151 63 139 b 19 -43 44 67 32 11 l 32 -51 z "},"¤":{"ha":926,"x_min":0,"x_max":0,"o":"m 249 175 b 460 115 315 135 386 115 b 674 176 531 115 603 136 l 817 33 l 903 121 l 757 268 b 813 476 794 333 813 403 b 757 683 813 547 794 615 l 907 833 l 821 921 l 672 774 b 457 833 601 814 531 833 b 249 776 376 833 307 814 l 107 918 l 19 831 l 160 690 b 101 479 121 617 101 546 b 160 261 101 411 121 338 l 19 119 l 107 33 z m 461 635 b 622 475 550 635 622 564 b 575 361 622 431 607 393 b 461 314 543 329 506 314 b 346 361 415 314 378 329 b 299 475 314 393 299 431 b 346 588 299 518 314 556 b 461 635 378 619 415 635 z "},"¥":{"ha":1010,"x_min":0,"x_max":0,"o":"m 46 993 b 85 956 65 982 78 969 l 332 456 l 360 410 l 361 385 l 114 385 l 114 329 l 363 329 l 363 285 l 114 283 l 114 232 l 364 233 l 364 108 b 342 49 364 94 357 75 b 299 0 332 33 318 17 l 686 0 b 657 17 675 4 665 10 b 614 100 628 40 614 68 l 614 233 l 864 233 l 864 285 l 611 283 l 611 329 l 864 329 l 864 385 l 613 385 l 775 683 l 822 774 b 944 956 853 828 893 889 b 979 1000 953 968 964 982 l 669 1000 b 717 900 696 971 711 938 b 706 789 722 851 718 815 l 578 522 l 413 856 b 403 879 411 863 403 878 b 411 1000 390 924 393 964 l 31 1000 b 46 993 32 1000 38 997 z "},"§":{"ha":825,"x_min":0,"x_max":0,"o":"m 315 739 b 286 792 296 753 286 771 b 381 864 286 832 329 864 b 497 763 447 864 486 831 b 581 671 508 694 531 671 b 660 751 625 671 660 707 b 582 893 660 806 633 853 b 397 954 531 933 468 954 b 210 893 321 954 258 933 b 138 735 161 853 138 800 b 208 596 138 678 161 631 b 99 381 140 528 99 446 b 196 221 99 318 125 272 l 463 18 l 481 4 b 524 -57 510 -17 524 -36 b 417 -132 524 -100 476 -132 b 297 -32 351 -132 297 -86 l 297 -1 b 217 71 297 39 263 71 b 131 -17 167 71 131 35 b 214 -160 131 -71 158 -118 b 408 -222 271 -201 335 -222 b 610 -156 488 -222 554 -200 b 694 4 667 -112 694 -58 b 624 138 694 58 671 103 b 728 344 693 210 728 279 b 619 507 728 407 704 444 l 342 719 z m 315 367 b 254 458 275 397 254 428 b 279 539 254 485 263 511 l 501 371 b 574 268 550 335 574 300 b 549 193 574 246 565 221 z "},"¨":{"ha":467,"x_min":0,"x_max":0,"o":"m 101 771 b 174 800 128 771 153 781 b 172 942 213 839 213 903 b 101 971 153 961 129 971 b 0 871 44 971 0 925 b 101 771 0 817 44 771 z m 264 871 b 438 801 260 788 379 733 b 436 942 476 839 476 903 b 264 871 379 1006 258 957 z "},"©":{"ha":1117,"x_min":0,"x_max":0,"o":"m 733 722 b 701 692 724 701 714 692 b 672 699 694 692 685 694 b 563 722 633 714 597 722 b 368 647 483 722 419 697 b 293 453 318 597 293 532 b 367 274 293 382 318 322 b 551 203 415 226 478 203 b 760 306 631 203 700 238 l 760 379 b 590 254 704 296 647 254 b 485 458 519 254 485 322 b 597 675 485 593 526 675 b 735 553 654 675 706 629 l 760 553 l 760 726 z m 558 944 b 217 803 425 944 311 897 b 76 464 124 710 76 596 b 217 122 76 331 124 217 b 558 -18 311 29 425 -18 b 897 122 690 -18 804 29 b 1039 464 992 217 1039 331 b 897 803 1039 596 992 710 b 558 944 804 897 690 944 z m 558 878 b 850 756 672 878 769 838 b 972 464 932 675 972 578 b 850 169 972 349 932 251 b 558 49 769 89 672 49 b 264 169 443 49 346 89 b 143 464 183 251 143 349 b 264 756 143 578 183 675 b 558 878 346 838 443 878 z "},"ª":{"ha":483,"x_min":0,"x_max":0,"o":"m 421 621 b 392 638 408 599 392 593 l 392 822 b 240 935 392 901 350 935 b 61 833 140 935 61 890 b 131 768 61 799 93 768 b 197 825 165 768 197 793 b 181 860 197 838 192 849 b 175 872 176 864 175 868 b 215 896 175 885 194 896 b 256 844 244 896 256 882 l 256 783 b 54 629 121 746 54 694 b 142 549 54 581 90 549 b 251 596 174 549 210 564 l 257 600 l 258 594 b 340 549 274 564 300 549 b 440 608 386 549 419 568 z m 256 640 b 221 621 240 628 228 621 b 192 658 201 621 192 633 b 256 743 192 693 213 722 z m 35 397 l 450 397 l 450 468 l 35 468 z "},"«":{"ha":808,"x_min":0,"x_max":0,"o":"m 611 57 b 654 38 624 44 639 38 b 693 74 675 38 693 56 b 686 107 693 82 690 93 l 607 318 l 690 536 b 697 565 694 549 697 558 b 660 597 697 586 685 597 b 596 557 642 597 619 583 l 372 318 z m 286 57 b 328 38 297 44 311 38 b 367 74 349 38 367 56 b 360 107 367 82 364 93 l 282 318 l 365 536 b 371 565 369 551 371 561 b 333 597 371 586 358 597 b 269 557 317 597 296 583 l 46 318 z "},"¬":{"ha":694,"x_min":0,"x_max":0,"o":"m 658 371 l 36 371 l 36 251 l 378 251 l 378 0 l 658 0 z "},"­":{"ha":514,"x_min":0,"x_max":0,"o":"m 50 475 l 50 294 l 464 294 l 464 475 z "},"®":{"ha":1117,"x_min":0,"x_max":0,"o":"m 865 239 b 808 271 840 239 821 250 l 701 447 b 799 576 772 479 799 514 b 593 717 799 669 731 717 l 279 717 l 279 688 l 304 688 b 350 636 342 688 350 679 l 350 292 b 304 239 350 249 342 239 l 283 239 l 283 210 l 590 210 l 590 239 l 567 239 b 521 292 529 239 521 251 l 521 450 l 544 450 l 681 210 l 865 210 z m 542 674 b 629 576 600 674 629 642 b 538 476 629 506 603 476 l 521 476 l 521 674 z m 558 944 b 217 803 425 944 311 897 b 76 464 124 710 76 596 b 217 122 76 331 124 217 b 558 -18 311 29 425 -18 b 897 122 690 -18 804 29 b 1039 464 992 217 1039 331 b 897 803 1039 596 992 710 b 558 944 804 897 690 944 z m 558 878 b 850 756 672 878 769 838 b 972 464 932 675 972 578 b 850 169 972 349 932 251 b 558 49 769 89 672 49 b 264 169 443 49 346 89 b 143 464 183 251 143 349 b 264 756 143 578 183 675 b 558 878 346 838 443 878 z "},"¯":{"ha":389,"x_min":0,"x_max":0,"o":"m 0 890 l 0 779 l 389 779 l 389 890 z "},"°":{"ha":269,"x_min":0,"x_max":0,"o":"m 135 772 b 231 811 171 772 203 785 b 231 997 282 863 282 947 b 39 999 176 1051 93 1050 b 0 906 13 972 0 942 b 135 772 0 833 58 774 z m 63 906 b 135 976 61 944 94 976 b 186 856 203 976 229 899 b 135 836 171 843 154 836 b 63 906 94 838 63 868 z "},"´":{"ha":297,"x_min":0,"x_max":0,"o":"m 215 975 l 60 774 l 122 774 l 381 975 z "},"¶":{"ha":933,"x_min":0,"x_max":0,"o":"m 736 778 b 746 861 736 824 739 851 b 810 875 753 871 775 875 l 825 875 l 825 926 l 415 926 l 350 926 b 69 694 163 926 69 849 b 347 469 69 544 163 469 l 397 469 l 397 6 l 397 -25 b 365 -56 397 -49 389 -56 l 338 -56 l 317 -57 l 286 -57 l 286 -108 l 525 -108 l 525 869 l 608 869 l 608 -108 l 806 -108 l 806 -57 l 783 -57 l 761 -57 l 754 -56 b 736 -29 739 -54 736 -50 l 736 -3 z m 367 526 b 275 699 310 526 275 593 b 375 875 275 826 303 875 l 397 875 l 397 526 z "},"·":{"ha":408,"x_min":0,"x_max":0,"o":"m 167 300 b 239 300 190 293 215 293 b 339 443 306 318 346 378 b 299 522 335 475 321 501 b 153 549 261 558 213 567 b 69 431 100 532 72 493 b 167 300 67 363 99 319 z "},"¸":{"ha":251,"x_min":0,"x_max":0,"o":"m 33 -236 b 113 -232 63 -237 89 -236 b 231 -186 169 -224 208 -208 b 215 -74 264 -149 254 -96 b 185 -62 208 -69 197 -67 b 144 -60 167 -60 154 -58 l 189 25 l 160 29 l 58 -112 b 101 -112 71 -110 85 -110 b 124 -119 107 -114 114 -115 b 138 -185 150 -132 156 -162 b 75 -212 126 -197 106 -206 b 29 -218 65 -214 50 -217 b 7 -217 19 -218 11 -218 l 0 -235 b 33 -236 7 -236 18 -236 z "},"º":{"ha":483,"x_min":0,"x_max":0,"o":"m 242 935 b 47 742 125 935 47 858 b 242 543 47 624 126 543 b 436 740 357 543 436 624 b 242 935 436 858 360 935 z m 193 747 b 242 900 193 865 204 900 b 290 749 279 900 290 867 b 242 578 290 621 279 578 b 193 747 204 578 193 619 z m 35 397 l 450 397 l 450 468 l 35 468 z "},"»":{"ha":808,"x_min":0,"x_max":0,"o":"m 213 557 b 146 597 186 583 164 597 b 111 565 125 597 111 583 b 117 536 111 561 113 551 l 201 318 l 122 107 b 115 74 118 93 115 82 b 154 38 115 53 133 38 b 196 57 171 38 185 44 l 436 318 z m 538 557 b 472 597 514 583 492 597 b 443 536 438 597 432 567 l 526 318 l 449 107 b 440 74 443 93 440 82 b 481 38 440 53 458 38 b 522 57 496 38 510 44 l 763 318 z "},"¿":{"ha":650,"x_min":0,"x_max":0,"o":"m 64 361 b 28 236 42 324 29 282 b 286 -21 24 96 118 -3 b 388 -18 318 -25 351 -24 b 604 119 506 0 578 46 b 597 269 625 178 622 228 b 482 336 572 313 533 335 b 364 208 399 338 346 276 b 375 182 365 200 368 192 b 424 185 390 189 406 190 b 460 110 457 175 472 142 b 399 60 450 86 429 69 b 299 85 361 47 328 56 b 288 258 260 124 256 182 b 299 279 292 268 294 275 l 371 386 b 400 483 381 403 390 435 b 379 674 415 557 408 621 l 325 674 l 331 629 b 324 576 333 614 331 596 b 274 517 314 550 297 529 l 168 458 b 64 361 122 432 88 400 z m 258 788 b 404 761 296 751 344 743 b 481 839 442 774 468 799 b 390 1010 504 918 469 988 b 318 1010 367 1017 342 1017 b 218 867 251 992 211 932 b 258 788 222 835 236 808 z "},"À":{"ha":926,"x_min":0,"x_max":0,"o":"m 301 0 b 274 35 289 15 279 26 b 225 244 225 106 208 175 l 258 381 l 571 381 l 631 124 b 613 18 640 83 635 49 b 599 0 608 11 603 6 l 967 0 l 949 17 b 893 101 919 46 900 75 l 750 704 l 733 772 l 736 797 b 767 908 738 832 750 886 b 650 924 729 907 690 913 b 619 936 649 925 626 932 l 586 950 l 518 979 b 357 1031 453 1007 399 1024 b 229 1026 315 1038 272 1036 b 33 876 97 999 33 942 b 131 808 33 822 79 790 b 156 822 142 814 150 818 b 176 847 168 833 175 842 b 196 896 183 871 189 888 b 289 946 228 936 258 953 l 121 299 b 103 240 113 269 107 250 b -10 0 67 136 29 56 z m 379 1281 l 213 1281 l 454 1063 l 515 1063 z m 378 908 b 481 760 431 876 465 828 l 550 468 l 282 467 z "},"Á":{"ha":926,"x_min":0,"x_max":0,"o":"m 301 0 b 274 35 289 15 279 26 b 225 244 225 106 208 175 l 258 381 l 571 381 l 631 124 b 613 18 640 83 635 49 b 599 0 608 11 603 6 l 967 0 l 949 17 b 893 101 919 46 900 75 l 750 704 l 733 772 l 736 797 b 767 908 738 832 750 886 b 650 924 729 907 690 913 b 619 936 649 925 626 932 l 586 950 l 518 979 b 357 1031 453 1007 399 1024 b 229 1026 315 1038 272 1036 b 33 876 97 999 33 942 b 131 808 33 822 79 790 b 156 822 142 814 150 818 b 176 847 168 833 175 842 b 196 896 183 871 189 888 b 289 946 228 936 258 953 l 121 299 b 103 240 113 269 107 250 b -10 0 67 136 29 56 z m 564 1265 l 408 1064 l 471 1064 l 729 1265 z m 378 908 b 481 760 431 876 465 828 l 550 468 l 282 467 z "},"Â":{"ha":926,"x_min":0,"x_max":0,"o":"m 301 0 b 274 35 289 15 279 26 b 225 244 225 106 208 175 l 258 381 l 571 381 l 631 124 b 613 18 640 83 635 49 b 599 0 608 11 603 6 l 967 0 l 949 17 b 893 101 919 46 900 75 l 750 704 l 733 772 l 736 797 b 767 908 738 832 750 886 b 650 924 729 907 690 913 b 619 936 649 925 626 932 l 586 950 l 518 979 b 357 1031 453 1007 399 1024 b 229 1026 315 1038 272 1036 b 33 876 97 999 33 942 b 131 808 33 822 79 790 b 156 822 142 814 150 818 b 176 847 168 833 175 842 b 196 896 183 871 189 888 b 289 946 228 936 258 953 l 121 299 b 103 240 113 269 107 250 b -10 0 67 136 29 56 z m 622 1065 l 675 1074 l 538 1263 l 419 1263 l 274 1074 l 326 1065 l 474 1188 z m 378 908 b 481 760 431 876 465 828 l 550 468 l 282 467 z "},"Ã":{"ha":926,"x_min":0,"x_max":0,"o":"m 301 0 b 274 35 289 15 279 26 b 225 244 225 106 208 175 l 258 381 l 571 381 l 631 124 b 613 18 640 83 635 49 b 599 0 608 11 603 6 l 967 0 l 949 17 b 893 101 919 46 900 75 l 750 704 l 733 772 l 736 797 b 767 908 738 832 750 886 b 650 924 729 907 690 913 b 619 936 649 925 626 932 l 586 950 l 518 979 b 357 1031 453 1007 399 1024 b 229 1026 315 1038 272 1036 b 33 876 97 999 33 942 b 131 808 33 822 79 790 b 156 822 142 814 150 818 b 176 847 168 833 175 842 b 196 896 183 871 189 888 b 289 946 228 936 258 953 l 121 299 b 103 240 113 269 107 250 b -10 0 67 136 29 56 z m 296 1082 b 414 1110 300 1124 340 1133 l 447 1097 b 692 1171 592 1040 660 1061 b 697 1200 693 1178 696 1188 l 682 1199 b 668 1174 681 1190 676 1182 b 563 1171 647 1153 628 1153 l 532 1182 l 503 1192 b 288 1108 385 1231 319 1207 b 281 1081 283 1099 282 1089 z m 378 908 b 481 760 431 876 465 828 l 550 468 l 282 467 z "},"Ä":{"ha":926,"x_min":0,"x_max":0,"o":"m 301 0 b 274 35 289 15 279 26 b 225 244 225 106 208 175 l 258 381 l 571 381 l 631 124 b 613 18 640 83 635 49 b 599 0 608 11 603 6 l 967 0 l 949 17 b 893 101 919 46 900 75 l 750 704 l 733 772 l 736 797 b 767 908 738 832 750 886 b 650 924 729 907 690 913 b 619 936 649 925 626 932 l 586 950 l 518 979 b 357 1031 453 1007 399 1024 b 229 1026 315 1038 272 1036 b 33 876 97 999 33 942 b 131 808 33 822 79 790 b 156 822 142 814 150 818 b 176 847 168 833 175 842 b 196 896 183 871 189 888 b 289 946 228 936 258 953 l 121 299 b 103 240 113 269 107 250 b -10 0 67 136 29 56 z m 336 1053 b 408 1083 364 1053 388 1063 b 408 1224 449 1122 449 1185 b 338 1253 388 1243 364 1253 b 236 1153 281 1253 236 1208 b 336 1053 236 1099 281 1054 z m 601 1053 b 674 1083 629 1053 653 1063 b 672 1224 713 1122 711 1185 b 601 1253 651 1243 628 1253 b 500 1154 544 1253 500 1208 b 601 1053 500 1099 546 1051 z m 378 908 b 481 760 431 876 465 828 l 550 468 l 282 467 z "},"Å":{"ha":926,"x_min":0,"x_max":0,"o":"m 301 0 b 274 35 289 15 279 26 b 225 244 225 106 208 175 l 258 381 l 571 381 l 631 124 b 613 18 640 83 635 49 b 599 0 608 11 603 6 l 967 0 l 949 17 b 893 101 919 46 900 75 l 750 704 l 733 772 l 736 797 b 767 908 738 832 750 886 b 650 924 729 907 690 913 b 619 936 649 925 626 932 l 586 950 l 518 979 b 357 1031 453 1007 399 1024 b 229 1026 315 1038 272 1036 b 33 876 97 999 33 942 b 131 808 33 822 79 790 b 156 822 142 814 150 818 b 176 847 168 833 175 842 b 196 896 183 871 189 888 b 289 946 228 936 258 953 l 121 299 b 103 240 113 269 107 250 b -10 0 67 136 29 56 z m 469 1043 b 565 1082 507 1043 539 1056 b 565 1268 619 1133 619 1217 b 469 1307 539 1294 507 1307 b 335 1176 396 1307 335 1247 b 469 1043 335 1104 393 1044 z m 378 908 b 481 760 431 876 465 828 l 550 468 l 282 467 z m 397 1176 b 471 1247 396 1215 428 1247 b 522 1226 489 1247 507 1240 b 521 1126 550 1199 550 1153 b 469 1106 506 1113 488 1106 b 397 1176 429 1107 397 1139 z "},"Æ":{"ha":1457,"x_min":0,"x_max":0,"o":"m 317 0 b 251 103 288 32 265 65 b 233 236 231 161 225 206 l 265 365 l 554 367 l 554 121 b 506 0 554 69 538 29 l 1190 0 l 1256 -11 l 1290 -15 l 1325 -19 l 1356 49 b 1447 238 1390 125 1421 189 b 1303 235 1400 249 1351 247 b 1190 193 1250 221 1213 207 l 1179 188 l 1096 140 b 956 83 1044 111 999 93 b 842 74 929 76 892 74 l 818 74 l 818 522 b 946 522 856 526 897 526 b 1171 461 1029 515 1104 496 b 1232 428 1200 447 1221 436 l 1288 392 l 1297 393 b 1344 414 1313 394 1333 403 b 1264 565 1313 461 1286 511 b 1218 711 1246 611 1231 660 b 1113 650 1186 685 1150 664 b 956 619 1075 636 1022 626 b 844 614 907 615 869 613 b 833 615 840 614 838 614 l 815 617 l 815 936 b 875 938 836 939 857 939 b 999 900 929 931 969 918 b 1238 782 1108 832 1189 793 b 1401 793 1317 765 1371 769 b 1343 886 1379 825 1360 857 b 1268 1036 1315 935 1290 985 l 1222 1024 l 1199 1018 l 1129 1000 l 460 1000 b 379 1007 444 1000 417 1003 l 329 1013 l 321 1014 b 261 1010 314 1014 294 1013 b 172 992 222 1006 193 1000 b 49 894 107 965 67 933 b 97 789 26 840 49 796 b 122 786 103 788 111 786 b 164 797 139 788 153 790 b 193 826 181 806 190 815 b 297 925 214 917 258 947 l 168 438 b 113 249 144 347 125 283 b 60 125 100 214 83 174 b -10 0 38 79 14 38 z m 551 892 l 551 460 l 285 460 l 390 893 z "},"Ç":{"ha":1067,"x_min":0,"x_max":0,"o":"m 819 939 b 611 1028 740 988 671 1017 b 415 1021 551 1040 486 1038 b 219 924 343 1006 278 972 b 50 635 129 850 79 768 b 61 329 26 529 29 428 b 253 64 100 206 158 125 b 338 18 285 43 314 28 b 479 -22 363 8 410 -4 l 524 -33 l 439 -151 b 483 -151 451 -149 465 -149 b 504 -158 488 -153 494 -154 b 518 -224 531 -171 536 -203 b 456 -251 507 -236 486 -246 b 410 -257 438 -256 422 -257 b 388 -256 400 -257 392 -257 l 381 -274 b 415 -276 388 -275 408 -275 b 493 -271 446 -276 472 -275 b 611 -225 551 -262 590 -247 b 596 -112 644 -187 635 -135 b 565 -101 583 -107 572 -103 b 525 -99 547 -99 535 -97 l 557 -36 l 603 -33 b 822 22 688 -29 761 -10 b 1042 276 940 86 1013 171 b 1018 261 1036 272 1022 263 b 788 161 929 208 853 175 b 594 172 724 149 660 151 b 290 539 424 221 322 343 b 310 806 274 646 281 735 b 436 943 339 878 382 924 b 632 931 508 969 574 965 b 728 797 682 901 714 857 b 713 621 744 726 739 667 b 604 556 686 575 650 554 b 510 624 554 557 519 585 b 528 628 511 624 517 625 b 610 725 590 646 610 671 b 576 785 610 750 599 769 b 500 794 556 800 531 803 b 433 731 471 786 449 765 b 458 563 410 678 418 622 b 638 454 499 503 558 467 b 961 606 783 431 892 481 b 988 669 971 622 979 643 b 990 868 1008 744 1008 811 b 983 890 989 874 988 881 b 819 939 938 885 882 901 z "},"È":{"ha":978,"x_min":0,"x_max":0,"o":"m 658 0 b 846 -19 726 0 789 -7 b 868 26 858 4 867 19 b 914 143 886 78 901 117 b 968 231 926 169 944 199 b 750 213 914 254 854 250 b 704 192 729 206 714 199 b 461 81 600 126 518 90 b 329 81 401 71 357 71 l 329 522 b 560 508 400 532 478 526 b 772 419 639 490 710 460 l 811 394 l 864 415 b 757 653 819 486 783 565 l 742 710 b 604 643 710 685 664 663 b 390 615 544 625 472 615 b 329 618 378 615 357 617 l 329 936 b 356 938 335 936 350 938 b 447 928 390 938 421 935 b 504 907 471 922 489 915 b 707 801 608 847 676 811 b 924 792 811 764 867 764 b 839 931 892 835 864 882 b 793 1035 822 964 807 999 b 758 1024 783 1031 764 1025 b 613 1000 706 1008 657 1000 l 21 1000 b 67 932 42 979 57 956 b 79 871 75 911 79 892 l 79 133 b 67 74 79 117 75 97 b 19 0 57 47 42 22 z m 386 1281 l 219 1281 l 461 1063 l 522 1063 z "},"É":{"ha":978,"x_min":0,"x_max":0,"o":"m 658 0 b 846 -19 726 0 789 -7 b 868 26 858 4 867 19 b 914 143 886 78 901 117 b 968 231 926 169 944 199 b 750 213 914 254 854 250 b 704 192 729 206 714 199 b 461 81 600 126 518 90 b 329 81 401 71 357 71 l 329 522 b 560 508 400 532 478 526 b 772 419 639 490 710 460 l 811 394 l 864 415 b 757 653 819 486 783 565 l 742 710 b 604 643 710 685 664 663 b 390 615 544 625 472 615 b 329 618 378 615 357 617 l 329 936 b 356 938 335 936 350 938 b 447 928 390 938 421 935 b 504 907 471 922 489 915 b 707 801 608 847 676 811 b 924 792 811 764 867 764 b 839 931 892 835 864 882 b 793 1035 822 964 807 999 b 758 1024 783 1031 764 1025 b 613 1000 706 1008 657 1000 l 21 1000 b 67 932 42 979 57 956 b 79 871 75 911 79 892 l 79 133 b 67 74 79 117 75 97 b 19 0 57 47 42 22 z m 569 1265 l 414 1064 l 476 1064 l 735 1265 z "},"Ê":{"ha":978,"x_min":0,"x_max":0,"o":"m 658 0 b 846 -19 726 0 789 -7 b 868 26 858 4 867 19 b 914 143 886 78 901 117 b 968 231 926 169 944 199 b 750 213 914 254 854 250 b 704 192 729 206 714 199 b 461 81 600 126 518 90 b 329 81 401 71 357 71 l 329 522 b 560 508 400 532 478 526 b 772 419 639 490 710 460 l 811 394 l 864 415 b 757 653 819 486 783 565 l 742 710 b 604 643 710 685 664 663 b 390 615 544 625 472 615 b 329 618 378 615 357 617 l 329 936 b 356 938 335 936 350 938 b 447 928 390 938 421 935 b 504 907 471 922 489 915 b 707 801 608 847 676 811 b 924 792 811 764 867 764 b 839 931 892 835 864 882 b 793 1035 822 964 807 999 b 758 1024 783 1031 764 1025 b 613 1000 706 1008 657 1000 l 21 1000 b 67 932 42 979 57 956 b 79 871 75 911 79 892 l 79 133 b 67 74 79 117 75 97 b 19 0 57 47 42 22 z m 624 1065 l 676 1074 l 539 1263 l 421 1263 l 275 1074 l 328 1065 l 475 1188 z "},"Ë":{"ha":978,"x_min":0,"x_max":0,"o":"m 658 0 b 846 -19 726 0 789 -7 b 868 26 858 4 867 19 b 914 143 886 78 901 117 b 968 231 926 169 944 199 b 750 213 914 254 854 250 b 704 192 729 206 714 199 b 461 81 600 126 518 90 b 329 81 401 71 357 71 l 329 522 b 560 508 400 532 478 526 b 772 419 639 490 710 460 l 811 394 l 864 415 b 757 653 819 486 783 565 l 742 710 b 604 643 710 685 664 663 b 390 615 544 625 472 615 b 329 618 378 615 357 617 l 329 936 b 356 938 335 936 350 938 b 447 928 390 938 421 935 b 504 907 471 922 489 915 b 707 801 608 847 676 811 b 924 792 811 764 867 764 b 839 931 892 835 864 882 b 793 1035 822 964 807 999 b 758 1024 783 1031 764 1025 b 613 1000 706 1008 657 1000 l 21 1000 b 67 932 42 979 57 956 b 79 871 75 911 79 892 l 79 133 b 67 74 79 117 75 97 b 19 0 57 47 42 22 z m 344 1061 b 417 1090 371 1061 396 1071 b 415 1232 456 1129 456 1193 b 243 1161 358 1296 238 1247 b 344 1061 243 1106 289 1061 z m 507 1161 b 681 1092 503 1078 622 1024 b 679 1232 719 1129 719 1193 b 507 1161 622 1296 501 1247 z "},"Ì":{"ha":406,"x_min":0,"x_max":0,"o":"m 39 985 b 79 910 65 957 79 932 l 79 115 b 46 26 79 83 68 54 l 25 3 l 35 0 l 386 0 b 329 118 349 24 329 64 l 329 906 b 364 981 329 926 340 951 b 383 1000 369 988 376 994 l 19 1000 b 39 985 26 996 32 990 z m 115 1281 l -51 1281 l 190 1063 l 251 1063 z "},"Í":{"ha":406,"x_min":0,"x_max":0,"o":"m 39 985 b 79 910 65 957 79 932 l 79 115 b 46 26 79 83 68 54 l 25 3 l 35 0 l 386 0 b 329 118 349 24 329 64 l 329 906 b 364 981 329 926 340 951 b 383 1000 369 988 376 994 l 19 1000 b 39 985 26 996 32 990 z m 326 1265 l 171 1064 l 233 1064 l 492 1265 z "},"Î":{"ha":406,"x_min":0,"x_max":0,"o":"m 39 985 b 79 910 65 957 79 932 l 79 115 b 46 26 79 83 68 54 l 25 3 l 35 0 l 386 0 b 329 118 349 24 329 64 l 329 906 b 364 981 329 926 340 951 b 383 1000 369 988 376 994 l 19 1000 b 39 985 26 996 32 990 z m 354 1065 l 407 1074 l 269 1263 l 151 1263 l 6 1074 l 58 1065 l 206 1188 z "},"Ï":{"ha":406,"x_min":0,"x_max":0,"o":"m 39 985 b 79 910 65 957 79 932 l 79 115 b 46 26 79 83 68 54 l 25 3 l 35 0 l 386 0 b 329 118 349 24 329 64 l 329 906 b 364 981 329 926 340 951 b 383 1000 369 988 376 994 l 19 1000 b 39 985 26 996 32 990 z m 74 1061 b 146 1090 100 1061 125 1071 b 144 1232 185 1129 185 1193 b 74 1261 125 1251 101 1261 b -28 1161 17 1261 -28 1217 b 74 1061 -28 1106 17 1061 z m 236 1161 b 410 1092 232 1078 351 1024 b 408 1232 449 1129 449 1193 b 236 1161 351 1296 231 1247 z "},"Ñ":{"ha":972,"x_min":0,"x_max":0,"o":"m 100 321 b 71 133 100 251 90 189 b -8 0 54 88 28 43 l 319 0 b 271 57 301 17 285 36 b 211 275 240 101 221 174 b 208 335 210 301 208 321 l 208 760 l 721 -43 l 763 -26 l 774 -22 b 992 68 867 22 940 53 l 967 83 b 879 176 933 101 886 143 l 879 746 b 957 969 879 807 906 882 l 976 1000 l 664 1000 b 690 972 676 988 685 979 b 753 869 719 938 740 904 b 782 728 765 836 775 789 b 783 701 782 722 783 707 l 783 328 l 467 831 l 454 854 b 464 1000 431 911 435 960 l -31 1000 l -6 983 b 100 893 28 961 79 919 z m 331 1082 b 449 1110 335 1124 375 1133 l 482 1097 b 726 1171 626 1040 694 1061 b 732 1200 728 1178 731 1188 l 717 1199 b 703 1174 715 1190 711 1182 b 597 1171 682 1153 663 1153 b 567 1182 590 1172 574 1181 l 538 1192 b 322 1108 419 1231 354 1207 b 315 1081 318 1099 317 1089 z "},"Ò":{"ha":1138,"x_min":0,"x_max":0,"o":"m 192 865 b 131 790 168 842 149 817 b 78 694 107 756 90 724 b 49 589 67 667 57 632 b 39 504 44 564 40 536 b 67 318 38 435 46 372 b 224 96 97 231 150 156 b 492 -21 297 35 388 -4 b 588 -28 526 -25 558 -28 b 988 158 763 -24 896 38 b 1088 404 1036 224 1069 306 b 1094 496 1092 429 1094 460 b 1064 690 1094 567 1085 632 b 797 996 1010 843 921 944 b 467 983 671 1047 561 1043 b 306 690 354 913 300 815 b 457 467 310 578 367 499 b 646 494 535 440 597 449 b 697 607 682 529 699 567 b 572 731 696 686 633 740 b 501 660 532 724 503 693 b 579 589 500 615 528 590 l 596 589 b 475 551 586 540 532 519 b 415 714 421 581 397 647 b 531 819 432 768 471 804 b 714 785 590 836 651 825 b 886 518 782 738 840 649 b 908 440 896 493 903 467 b 697 83 953 218 868 89 b 500 154 632 82 565 106 b 364 315 454 188 410 242 b 324 394 351 335 339 361 b 261 603 288 479 267 549 b 268 800 251 682 254 747 b 354 958 283 854 311 907 l 381 989 b 192 865 318 969 254 928 z m 488 1281 l 321 1281 l 563 1063 l 624 1063 z "},"Ó":{"ha":1138,"x_min":0,"x_max":0,"o":"m 192 865 b 131 790 168 842 149 817 b 78 694 107 756 90 724 b 49 589 67 667 57 632 b 39 504 44 564 40 536 b 67 318 38 435 46 372 b 224 96 97 231 150 156 b 492 -21 297 35 388 -4 b 588 -28 526 -25 558 -28 b 988 158 763 -24 896 38 b 1088 404 1036 224 1069 306 b 1094 496 1092 429 1094 460 b 1064 690 1094 567 1085 632 b 797 996 1010 843 921 944 b 467 983 671 1047 561 1043 b 306 690 354 913 300 815 b 457 467 310 578 367 499 b 646 494 535 440 597 449 b 697 607 682 529 699 567 b 572 731 696 686 633 740 b 501 660 532 724 503 693 b 579 589 500 615 528 590 l 596 589 b 475 551 586 540 532 519 b 415 714 421 581 397 647 b 531 819 432 768 471 804 b 714 785 590 836 651 825 b 886 518 782 738 840 649 b 908 440 896 493 903 467 b 697 83 953 218 868 89 b 500 154 632 82 565 106 b 364 315 454 188 410 242 b 324 394 351 335 339 361 b 261 603 288 479 267 549 b 268 800 251 682 254 747 b 354 958 283 854 311 907 l 381 989 b 192 865 318 969 254 928 z m 690 1265 l 535 1064 l 597 1064 l 856 1265 z "},"Ô":{"ha":1138,"x_min":0,"x_max":0,"o":"m 192 865 b 131 790 168 842 149 817 b 78 694 107 756 90 724 b 49 589 67 667 57 632 b 39 504 44 564 40 536 b 67 318 38 435 46 372 b 224 96 97 231 150 156 b 492 -21 297 35 388 -4 b 588 -28 526 -25 558 -28 b 988 158 763 -24 896 38 b 1088 404 1036 224 1069 306 b 1094 496 1092 429 1094 460 b 1064 690 1094 567 1085 632 b 797 996 1010 843 921 944 b 467 983 671 1047 561 1043 b 306 690 354 913 300 815 b 457 467 310 578 367 499 b 646 494 535 440 597 449 b 697 607 682 529 699 567 b 572 731 696 686 633 740 b 501 660 532 724 503 693 b 579 589 500 615 528 590 l 596 589 b 475 551 586 540 532 519 b 415 714 421 581 397 647 b 531 819 432 768 471 804 b 714 785 590 836 651 825 b 886 518 782 738 840 649 b 908 440 896 493 903 467 b 697 83 953 218 868 89 b 500 154 632 82 565 106 b 364 315 454 188 410 242 b 324 394 351 335 339 361 b 261 603 288 479 267 549 b 268 800 251 682 254 747 b 354 958 283 854 311 907 l 381 989 b 192 865 318 969 254 928 z m 757 1065 l 810 1074 l 672 1263 l 554 1263 l 408 1074 l 461 1065 l 608 1188 z "},"Õ":{"ha":1138,"x_min":0,"x_max":0,"o":"m 192 865 b 131 790 168 842 149 817 b 78 694 107 756 90 724 b 49 589 67 667 57 632 b 39 504 44 564 40 536 b 67 318 38 435 46 372 b 224 96 97 231 150 156 b 492 -21 297 35 388 -4 b 588 -28 526 -25 558 -28 b 988 158 763 -24 896 38 b 1088 404 1036 224 1069 306 b 1094 496 1092 429 1094 460 b 1064 690 1094 567 1085 632 b 797 996 1010 843 921 944 b 467 983 671 1047 561 1043 b 306 690 354 913 300 815 b 457 467 310 578 367 499 b 646 494 535 440 597 449 b 697 607 682 529 699 567 b 572 731 696 686 633 740 b 501 660 532 724 503 693 b 579 589 500 615 528 590 l 596 589 b 475 551 586 540 532 519 b 415 714 421 581 397 647 b 531 819 432 768 471 804 b 714 785 590 836 651 825 b 886 518 782 738 840 649 b 908 440 896 493 903 467 b 697 83 953 218 868 89 b 500 154 632 82 565 106 b 364 315 454 188 410 242 b 324 394 351 335 339 361 b 261 603 288 479 267 549 b 268 800 251 682 254 747 b 354 958 283 854 311 907 l 381 989 b 192 865 318 969 254 928 z m 415 1082 b 533 1110 419 1124 460 1133 l 567 1097 b 811 1171 711 1040 779 1061 b 817 1200 813 1178 815 1188 l 801 1199 b 788 1174 800 1190 796 1182 b 682 1171 767 1153 747 1153 l 651 1182 l 622 1192 b 407 1108 504 1231 439 1207 b 400 1081 403 1099 401 1089 z "},"Ö":{"ha":1138,"x_min":0,"x_max":0,"o":"m 192 865 b 131 790 168 842 149 817 b 78 694 107 756 90 724 b 49 589 67 667 57 632 b 39 504 44 564 40 536 b 67 318 38 435 46 372 b 224 96 97 231 150 156 b 492 -21 297 35 388 -4 b 588 -28 526 -25 558 -28 b 988 158 763 -24 896 38 b 1088 404 1036 224 1069 306 b 1094 496 1092 429 1094 460 b 1064 690 1094 567 1085 632 b 797 996 1010 843 921 944 b 467 983 671 1047 561 1043 b 306 690 354 913 300 815 b 457 467 310 578 367 499 b 646 494 535 440 597 449 b 697 607 682 529 699 567 b 572 731 696 686 633 740 b 501 660 532 724 503 693 b 579 589 500 615 528 590 l 596 589 b 475 551 586 540 532 519 b 415 714 421 581 397 647 b 531 819 432 768 471 804 b 714 785 590 836 651 825 b 886 518 782 738 840 649 b 908 440 896 493 903 467 b 697 83 953 218 868 89 b 500 154 632 82 565 106 b 364 315 454 188 410 242 b 324 394 351 335 339 361 b 261 603 288 479 267 549 b 268 800 251 682 254 747 b 354 958 283 854 311 907 l 381 989 b 192 865 318 969 254 928 z m 461 1053 b 533 1082 488 1053 513 1063 b 533 1224 572 1121 572 1185 b 461 1253 513 1243 488 1253 b 360 1153 406 1253 360 1207 b 461 1053 360 1097 406 1053 z m 726 1053 b 797 1083 753 1053 776 1063 b 797 1224 836 1122 836 1185 b 725 1253 776 1243 751 1253 b 624 1153 669 1253 625 1208 b 726 1053 624 1099 669 1053 z "},"×":{"ha":838,"x_min":0,"x_max":0,"o":"m 221 157 l 422 358 l 625 157 l 765 297 l 563 499 l 765 701 l 624 843 l 422 640 l 221 843 l 79 701 l 282 500 l 79 297 z "},"Ø":{"ha":1146,"x_min":0,"x_max":0,"o":"m 225 97 b 496 -21 301 35 392 -4 b 592 -28 531 -25 563 -28 b 992 158 767 -24 900 38 b 1092 404 1040 224 1074 306 b 1099 496 1096 429 1099 460 b 1068 689 1099 567 1089 631 b 1007 818 1051 739 1031 782 b 1000 828 1004 821 1001 824 l 992 839 l 1154 982 l 1124 1015 l 965 876 l 954 888 l 939 903 b 803 996 894 946 849 976 b 471 983 676 1047 565 1043 b 310 690 358 914 304 817 b 461 467 314 578 371 499 b 650 494 539 440 601 449 b 701 607 686 529 703 567 b 576 731 700 686 638 740 b 506 660 536 724 507 693 b 583 589 504 615 532 590 l 600 589 b 479 551 590 540 536 519 b 419 714 425 581 401 647 b 535 819 436 768 475 804 b 718 785 594 836 656 825 b 890 518 786 738 844 649 b 913 440 900 493 907 467 b 701 83 957 218 872 89 b 504 154 636 82 569 106 b 368 315 458 188 414 242 b 328 394 356 335 343 361 b 265 603 292 479 271 549 b 272 800 256 682 258 747 b 358 958 288 854 315 907 l 385 989 b 196 865 322 969 258 928 b 135 790 172 842 153 817 b 82 694 111 756 94 724 b 53 589 71 667 61 632 b 43 504 49 564 44 536 b 143 182 40 386 74 278 l 157 163 l -15 14 l 17 -17 l 188 131 z "},"Ù":{"ha":925,"x_min":0,"x_max":0,"o":"m 60 244 b 103 78 58 171 72 115 b 281 -14 135 40 193 10 b 450 -32 326 -26 382 -32 b 769 40 592 -32 699 -8 b 864 219 840 89 872 149 l 821 575 b 808 819 808 688 804 768 b 853 975 813 871 828 924 l 865 1000 l 571 1000 l 589 981 b 653 890 618 949 640 919 b 694 744 665 861 679 813 b 706 683 700 721 704 700 l 763 250 b 707 107 771 192 753 144 b 511 63 661 69 596 56 b 335 156 424 69 364 100 b 310 250 314 193 306 224 l 379 881 b 443 1000 385 932 406 972 l 72 1000 b 115 933 96 981 110 958 b 119 811 122 910 124 868 b 117 786 119 806 117 792 l 61 278 b 60 244 60 271 60 260 z m 400 1281 l 233 1281 l 475 1063 l 536 1063 z "},"Ú":{"ha":925,"x_min":0,"x_max":0,"o":"m 60 244 b 103 78 58 171 72 115 b 281 -14 135 40 193 10 b 450 -32 326 -26 382 -32 b 769 40 592 -32 699 -8 b 864 219 840 89 872 149 l 821 575 b 808 819 808 688 804 768 b 853 975 813 871 828 924 l 865 1000 l 571 1000 l 589 981 b 653 890 618 949 640 919 b 694 744 665 861 679 813 b 706 683 700 721 704 700 l 763 250 b 707 107 771 192 753 144 b 511 63 661 69 596 56 b 335 156 424 69 364 100 b 310 250 314 193 306 224 l 379 881 b 443 1000 385 932 406 972 l 72 1000 b 115 933 96 981 110 958 b 119 811 122 910 124 868 b 117 786 119 806 117 792 l 61 278 b 60 244 60 271 60 260 z m 621 1265 l 465 1064 l 528 1064 l 786 1265 z "},"Û":{"ha":925,"x_min":0,"x_max":0,"o":"m 60 244 b 103 78 58 171 72 115 b 281 -14 135 40 193 10 b 450 -32 326 -26 382 -32 b 769 40 592 -32 699 -8 b 864 219 840 89 872 149 l 821 575 b 808 819 808 688 804 768 b 853 975 813 871 828 924 l 865 1000 l 571 1000 l 589 981 b 653 890 618 949 640 919 b 694 744 665 861 679 813 b 706 683 700 721 704 700 l 763 250 b 707 107 771 192 753 144 b 511 63 661 69 596 56 b 335 156 424 69 364 100 b 310 250 314 193 306 224 l 379 881 b 443 1000 385 932 406 972 l 72 1000 b 115 933 96 981 110 958 b 119 811 122 910 124 868 b 117 786 119 806 117 792 l 61 278 b 60 244 60 271 60 260 z m 651 1065 l 704 1074 l 567 1263 l 449 1263 l 303 1074 l 356 1065 l 503 1188 z "},"Ü":{"ha":925,"x_min":0,"x_max":0,"o":"m 60 244 b 103 78 58 171 72 115 b 281 -14 135 40 193 10 b 450 -32 326 -26 382 -32 b 769 40 592 -32 699 -8 b 864 219 840 89 872 149 l 821 575 b 808 819 808 688 804 768 b 853 975 813 871 828 924 l 865 1000 l 571 1000 l 589 981 b 653 890 618 949 640 919 b 694 744 665 861 679 813 b 706 683 700 721 704 700 l 763 250 b 707 107 771 192 753 144 b 511 63 661 69 596 56 b 335 156 424 69 364 100 b 310 250 314 193 306 224 l 379 881 b 443 1000 385 932 406 972 l 72 1000 b 115 933 96 981 110 958 b 119 811 122 910 124 868 b 117 786 119 806 117 792 l 61 278 b 60 244 60 271 60 260 z m 368 1054 b 469 1153 425 1054 469 1099 b 368 1253 469 1208 425 1253 b 267 1153 313 1253 267 1208 b 368 1054 267 1099 311 1056 z m 633 1054 b 704 1224 719 1049 768 1167 b 632 1253 683 1243 658 1253 b 531 1154 576 1253 531 1208 b 633 1054 529 1099 576 1053 z "},"ß":{"ha":968,"x_min":0,"x_max":0,"o":"m 71 106 b 21 0 71 60 54 25 l 360 0 b 335 24 351 7 343 14 b 301 119 313 53 301 85 l 301 767 b 283 828 301 793 296 814 b 228 907 256 860 238 886 b 306 1029 201 967 238 1024 b 403 1007 336 1032 368 1025 b 499 799 488 964 525 883 b 376 678 481 739 436 694 b 503 629 417 674 458 658 b 597 543 539 606 571 576 b 676 353 638 489 664 426 b 647 126 692 261 682 186 b 513 53 610 64 565 40 b 449 101 485 60 464 76 b 465 111 453 103 461 110 b 532 243 539 157 554 192 b 407 269 510 294 456 308 b 392 254 401 265 396 260 b 421 44 346 206 353 118 b 579 -33 458 4 511 -22 b 803 19 657 -46 732 -28 b 933 340 903 86 954 206 b 606 679 911 497 794 624 b 546 694 579 686 560 692 b 572 703 547 694 557 697 b 669 774 618 722 650 746 b 464 1058 750 897 693 1015 b 407 1067 429 1064 411 1067 b 267 1068 358 1072 311 1072 b 24 896 103 1050 22 993 b 35 831 24 867 28 846 b 68 710 57 785 68 744 l 6 710 l 6 629 l 71 629 z "},"à":{"ha":710,"x_min":0,"x_max":0,"o":"m 358 506 b 192 440 288 488 232 465 b 63 317 129 403 86 361 b 39 143 31 260 24 201 b 392 10 76 -1 210 -61 b 447 40 404 15 424 25 l 453 0 l 729 0 b 690 43 714 13 700 26 b 674 90 681 60 675 75 l 624 518 b 292 735 601 703 488 781 b 186 692 247 725 213 710 b 82 539 124 649 89 599 l 107 554 b 383 550 269 654 372 624 l 389 514 b 358 506 388 514 365 510 z m 292 990 l 125 990 l 367 772 l 428 772 z m 440 106 b 372 72 425 82 401 71 b 303 113 343 74 321 86 b 274 253 279 146 269 193 b 294 340 276 286 283 315 b 396 464 317 394 350 436 z "},"á":{"ha":710,"x_min":0,"x_max":0,"o":"m 358 506 b 192 440 288 488 232 465 b 63 317 129 403 86 361 b 39 143 31 260 24 201 b 392 10 76 -1 210 -61 b 447 40 404 15 424 25 l 453 0 l 729 0 b 690 43 714 13 700 26 b 674 90 681 60 675 75 l 624 518 b 292 735 601 703 488 781 b 186 692 247 725 213 710 b 82 539 124 649 89 599 l 107 554 b 383 550 269 654 372 624 l 389 514 b 358 506 388 514 365 510 z m 497 975 l 342 774 l 404 774 l 663 975 z m 440 106 b 372 72 425 82 401 71 b 303 113 343 74 321 86 b 274 253 279 146 269 193 b 294 340 276 286 283 315 b 396 464 317 394 350 436 z "},"â":{"ha":710,"x_min":0,"x_max":0,"o":"m 358 506 b 192 440 288 488 232 465 b 63 317 129 403 86 361 b 39 143 31 260 24 201 b 392 10 76 -1 210 -61 b 447 40 404 15 424 25 l 453 0 l 729 0 b 690 43 714 13 700 26 b 674 90 681 60 675 75 l 624 518 b 292 735 601 703 488 781 b 186 692 247 725 213 710 b 82 539 124 649 89 599 l 107 554 b 383 550 269 654 372 624 l 389 514 b 358 506 388 514 365 510 z m 529 775 l 582 783 l 444 972 l 326 972 l 181 783 l 233 775 l 381 897 z m 440 106 b 372 72 425 82 401 71 b 303 113 343 74 321 86 b 274 253 279 146 269 193 b 294 340 276 286 283 315 b 396 464 317 394 350 436 z "},"ã":{"ha":710,"x_min":0,"x_max":0,"o":"m 358 506 b 192 440 288 488 232 465 b 63 317 129 403 86 361 b 39 143 31 260 24 201 b 392 10 76 -1 210 -61 b 447 40 404 15 424 25 l 453 0 l 729 0 b 690 43 714 13 700 26 b 674 90 681 60 675 75 l 624 518 b 292 735 601 703 488 781 b 186 692 247 725 213 710 b 82 539 124 649 89 599 l 107 554 b 383 550 269 654 372 624 l 389 514 b 358 506 388 514 365 510 z m 201 792 b 319 819 206 833 246 843 l 353 807 b 597 881 497 750 565 771 b 603 910 599 888 601 897 l 588 908 b 574 883 586 900 582 892 b 468 881 553 863 533 863 l 438 892 l 408 901 b 193 818 290 940 225 917 b 186 790 189 808 188 799 z m 440 106 b 372 72 425 82 401 71 b 303 113 343 74 321 86 b 274 253 279 146 269 193 b 294 340 276 286 283 315 b 396 464 317 394 350 436 z "},"ä":{"ha":710,"x_min":0,"x_max":0,"o":"m 257 800 b 329 831 285 800 308 810 b 329 971 368 869 368 932 b 257 1000 308 990 283 1000 b 156 900 201 1000 156 954 b 257 800 156 846 201 801 z m 522 800 b 593 831 551 800 575 810 b 593 971 632 869 632 932 b 522 1000 572 990 549 1000 b 421 901 465 1000 421 956 b 522 800 419 846 465 799 z m 358 506 b 192 440 288 488 232 465 b 63 317 129 403 86 361 b 39 143 31 260 24 201 b 392 10 76 -1 210 -61 b 447 40 404 15 424 25 l 453 0 l 729 0 b 690 43 714 13 700 26 b 674 90 681 60 675 75 l 624 518 b 292 735 601 703 488 781 b 186 692 247 725 213 710 b 82 539 124 649 89 599 l 107 554 b 383 550 269 654 372 624 l 389 514 b 358 506 388 514 365 510 z m 440 106 b 372 72 425 82 401 71 b 303 113 343 74 321 86 b 274 253 279 146 269 193 b 294 340 276 286 283 315 b 396 464 317 394 350 436 z "},"å":{"ha":710,"x_min":0,"x_max":0,"o":"m 394 781 b 492 819 432 781 464 793 b 396 1046 576 894 513 1053 b 261 914 322 1046 261 986 b 394 781 261 842 321 782 z m 358 506 b 192 440 288 488 232 465 b 63 317 129 403 86 361 b 39 143 31 260 24 201 b 392 10 76 -1 210 -61 b 447 40 404 15 424 25 l 453 0 l 729 0 b 690 43 714 13 700 26 b 674 90 681 60 675 75 l 624 518 b 292 735 601 703 488 781 b 186 692 247 725 213 710 b 82 539 124 649 89 599 l 107 554 b 383 550 269 654 372 624 l 389 514 b 358 506 388 514 365 510 z m 324 914 b 396 985 324 953 356 985 b 447 864 464 985 490 907 b 396 844 432 851 415 844 b 324 914 356 844 324 876 z m 440 106 b 372 72 425 82 401 71 b 303 113 343 74 321 86 b 274 253 279 146 269 193 b 294 340 276 286 283 315 b 396 464 317 394 350 436 z "},"æ":{"ha":1131,"x_min":0,"x_max":0,"o":"m 189 435 b 85 354 142 407 107 381 b 28 210 49 310 29 261 b 272 -17 24 75 115 -15 b 433 21 308 -17 363 -4 b 458 31 439 22 453 29 l 474 0 l 772 0 b 829 3 789 0 808 1 l 861 6 l 886 8 b 975 29 921 13 950 19 b 1118 150 1042 56 1089 96 b 1039 132 1094 143 1068 136 b 843 163 971 124 906 133 b 733 256 804 182 768 213 b 669 392 694 304 674 349 l 1088 392 b 1072 525 1089 440 1085 485 b 921 729 1046 621 996 689 b 668 742 846 769 761 774 b 572 690 632 729 600 711 b 353 749 513 736 439 756 b 260 728 319 746 289 739 b 79 536 153 689 92 625 b 114 564 94 549 106 558 b 365 572 229 635 321 629 b 386 532 375 560 382 547 l 211 447 b 189 435 210 446 194 439 z m 656 467 b 643 547 646 494 642 521 b 672 647 644 597 654 631 b 806 621 711 686 765 678 b 842 493 821 600 832 558 b 844 467 842 489 843 479 z m 446 101 b 310 107 413 61 354 61 b 281 293 271 149 261 211 b 404 460 303 386 344 442 z "},"ç":{"ha":672,"x_min":0,"x_max":0,"o":"m 360 583 b 482 432 349 490 397 432 b 588 482 528 431 564 447 b 601 608 611 517 617 560 b 422 736 581 678 521 721 b 203 690 346 749 272 733 b 146 646 182 678 164 664 b 35 404 81 583 50 517 b 311 -24 6 199 113 38 l 335 -31 l 256 -136 b 300 -137 268 -133 283 -133 b 321 -144 310 -139 317 -142 b 335 -208 347 -156 356 -187 b 272 -237 324 -221 303 -231 b 226 -242 258 -240 243 -242 l 204 -242 l 197 -260 b 232 -261 204 -260 225 -261 b 311 -257 251 -262 278 -261 b 428 -210 365 -249 404 -233 b 413 -99 461 -172 453 -119 b 382 -87 406 -94 394 -92 b 342 -85 364 -85 351 -83 l 369 -32 b 393 -31 375 -32 388 -31 b 528 -1 450 -26 494 -17 b 653 132 596 33 638 78 l 628 122 b 271 325 476 72 344 142 b 243 439 253 368 244 406 b 258 594 239 501 244 553 b 396 657 281 665 350 692 b 360 583 376 638 364 613 z "},"è":{"ha":718,"x_min":0,"x_max":0,"o":"m 660 511 b 529 693 633 599 589 660 b 321 732 457 733 408 743 b 217 697 283 726 249 715 b 43 465 131 651 72 575 b 36 282 28 407 25 346 b 164 58 54 178 90 115 b 303 -10 203 28 249 6 b 532 -10 381 -31 457 -31 b 671 69 596 8 642 35 b 708 129 686 88 699 108 l 671 117 b 433 136 588 93 508 99 b 276 315 358 174 306 233 b 263 364 272 329 267 346 l 665 364 b 660 511 676 413 675 463 z m 274 990 l 107 990 l 349 772 l 410 772 z m 239 442 b 235 474 236 461 235 472 b 242 590 229 515 232 554 b 351 635 258 642 307 661 b 422 522 386 615 410 578 b 426 442 429 478 428 453 z "},"é":{"ha":718,"x_min":0,"x_max":0,"o":"m 660 511 b 529 693 633 599 589 660 b 321 732 457 733 408 743 b 217 697 283 726 249 715 b 43 465 131 651 72 575 b 36 282 28 407 25 346 b 164 58 54 178 90 115 b 303 -10 203 28 249 6 b 532 -10 381 -31 457 -31 b 671 69 596 8 642 35 b 708 129 686 88 699 108 l 671 117 b 433 136 588 93 508 99 b 276 315 358 174 306 233 b 263 364 272 329 267 346 l 665 364 b 660 511 676 413 675 463 z m 467 975 l 311 774 l 374 774 l 632 975 z m 239 442 b 235 474 236 461 235 472 b 242 590 229 515 232 554 b 351 635 258 642 307 661 b 422 522 386 615 410 578 b 426 442 429 478 428 453 z "},"ê":{"ha":718,"x_min":0,"x_max":0,"o":"m 660 511 b 529 693 633 599 589 660 b 321 732 457 733 408 743 b 217 697 283 726 249 715 b 43 465 131 651 72 575 b 36 282 28 407 25 346 b 164 58 54 178 90 115 b 303 -10 203 28 249 6 b 532 -10 381 -31 457 -31 b 671 69 596 8 642 35 b 708 129 686 88 699 108 l 671 117 b 433 136 588 93 508 99 b 276 315 358 174 306 233 b 263 364 272 329 267 346 l 665 364 b 660 511 676 413 675 463 z m 519 775 l 572 783 l 435 972 l 317 972 l 171 783 l 224 775 l 371 897 z m 239 442 b 235 474 236 461 235 472 b 242 590 229 515 232 554 b 351 635 258 642 307 661 b 422 522 386 615 410 578 b 426 442 429 478 428 453 z "},"ë":{"ha":718,"x_min":0,"x_max":0,"o":"m 660 511 b 529 693 633 599 589 660 b 321 732 457 733 408 743 b 217 697 283 726 249 715 b 43 465 131 651 72 575 b 36 282 28 407 25 346 b 164 58 54 178 90 115 b 303 -10 203 28 249 6 b 532 -10 381 -31 457 -31 b 671 69 596 8 642 35 b 708 129 686 88 699 108 l 671 117 b 433 136 588 93 508 99 b 276 315 358 174 306 233 b 263 364 272 329 267 346 l 665 364 b 660 511 676 413 675 463 z m 246 771 b 318 800 272 771 297 781 b 317 942 357 839 357 903 b 246 971 297 961 274 971 b 144 871 189 971 144 925 b 246 771 144 817 189 771 z m 408 871 b 582 801 404 788 524 733 b 581 942 621 839 621 903 b 408 871 524 1006 403 957 z m 239 442 b 235 474 236 461 235 472 b 242 590 229 515 232 554 b 351 635 258 642 307 661 b 422 522 386 615 410 578 b 426 442 429 478 428 453 z "},"ì":{"ha":368,"x_min":0,"x_max":0,"o":"m 349 0 b 318 43 339 10 328 25 b 299 104 306 68 299 89 l 299 750 l 250 733 b 133 697 218 721 179 710 b 21 681 88 686 50 681 b 69 593 53 661 69 632 l 69 106 b 40 24 69 78 60 50 b 19 0 33 14 26 7 z m 86 990 l -81 990 l 161 772 l 222 772 z "},"í":{"ha":368,"x_min":0,"x_max":0,"o":"m 349 0 b 318 43 339 10 328 25 b 299 104 306 68 299 89 l 299 750 l 250 733 b 133 697 218 721 179 710 b 21 681 88 686 50 681 b 69 593 53 661 69 632 l 69 106 b 40 24 69 78 60 50 b 19 0 33 14 26 7 z m 304 975 l 149 774 l 211 774 l 469 975 z "},"î":{"ha":368,"x_min":0,"x_max":0,"o":"m 349 0 b 318 43 339 10 328 25 b 299 104 306 68 299 89 l 299 750 l 250 733 b 133 697 218 721 179 710 b 21 681 88 686 50 681 b 69 593 53 661 69 632 l 69 106 b 40 24 69 78 60 50 b 19 0 33 14 26 7 z m 331 775 l 383 783 l 246 972 l 128 972 l -18 783 l 35 775 l 182 897 z "},"ï":{"ha":368,"x_min":0,"x_max":0,"o":"m 349 0 b 318 43 339 10 328 25 b 299 104 306 68 299 89 l 299 750 l 250 733 b 133 697 218 721 179 710 b 21 681 88 686 50 681 b 69 593 53 661 69 632 l 69 106 b 40 24 69 78 60 50 b 19 0 33 14 26 7 z m 53 771 b 125 800 79 771 104 781 b 124 942 164 839 164 903 b -49 871 67 1007 -54 954 b 53 771 -49 817 -3 771 z m 215 871 b 389 801 211 788 331 733 b 388 942 428 839 428 903 b 215 871 331 1006 210 957 z "},"ñ":{"ha":728,"x_min":0,"x_max":0,"o":"m 329 0 b 297 38 308 10 297 22 b 299 78 297 50 297 64 l 299 521 b 344 617 299 583 311 607 b 429 574 394 628 429 607 l 429 79 b 414 28 429 67 424 49 b 399 0 410 18 406 10 l 708 0 b 697 22 704 6 699 18 b 658 158 671 78 658 124 l 658 554 l 658 585 b 464 746 650 697 585 751 b 324 692 422 744 375 726 l 299 675 l 299 750 l 251 732 b 135 696 219 719 181 708 b 22 679 89 685 51 679 b 39 664 31 674 36 668 b 69 600 60 643 69 621 l 69 88 b 43 19 69 63 61 40 b 19 0 36 13 28 6 z m 194 792 b 313 819 199 833 239 843 l 346 807 b 590 881 490 750 558 771 b 596 910 592 888 594 897 l 581 908 b 567 883 579 900 575 892 b 461 881 546 863 526 863 b 431 892 454 882 438 890 l 401 901 b 186 818 283 940 218 917 b 179 790 182 808 181 799 z "},"ò":{"ha":736,"x_min":0,"x_max":0,"o":"m 31 324 b 83 139 35 249 51 188 b 440 -19 171 1 300 -53 b 658 153 533 3 606 60 b 704 314 683 199 699 253 b 676 521 711 390 701 460 b 417 740 626 644 532 724 b 107 607 293 758 190 714 b 35 419 69 558 44 496 l 31 372 z m 276 990 l 110 990 l 351 772 l 413 772 z m 289 557 b 371 667 289 635 319 671 b 444 561 415 663 435 639 b 446 526 446 553 446 542 l 446 157 b 392 46 446 92 428 56 b 289 174 329 29 289 69 z "},"ó":{"ha":736,"x_min":0,"x_max":0,"o":"m 31 324 b 83 139 35 249 51 188 b 440 -19 171 1 300 -53 b 658 153 533 3 606 60 b 704 314 683 199 699 253 b 676 521 711 390 701 460 b 417 740 626 644 532 724 b 107 607 293 758 190 714 b 35 419 69 558 44 496 l 31 372 z m 486 975 l 331 774 l 393 774 l 651 975 z m 289 557 b 371 667 289 635 319 671 b 444 561 415 663 435 639 b 446 526 446 553 446 542 l 446 157 b 392 46 446 92 428 56 b 289 174 329 29 289 69 z "},"ô":{"ha":736,"x_min":0,"x_max":0,"o":"m 31 324 b 83 139 35 249 51 188 b 440 -19 171 1 300 -53 b 658 153 533 3 606 60 b 704 314 683 199 699 253 b 676 521 711 390 701 460 b 417 740 626 644 532 724 b 107 607 293 758 190 714 b 35 419 69 558 44 496 l 31 372 z m 525 775 l 578 783 l 440 972 l 322 972 l 176 783 l 229 775 l 376 897 z m 289 557 b 371 667 289 635 319 671 b 444 561 415 663 435 639 b 446 526 446 553 446 542 l 446 157 b 392 46 446 92 428 56 b 289 174 329 29 289 69 z "},"õ":{"ha":736,"x_min":0,"x_max":0,"o":"m 31 324 b 83 139 35 249 51 188 b 440 -19 171 1 300 -53 b 658 153 533 3 606 60 b 704 314 683 199 699 253 b 676 521 711 390 701 460 b 417 740 626 644 532 724 b 107 607 293 758 190 714 b 35 419 69 558 44 496 l 31 372 z m 199 792 b 317 819 203 833 243 843 l 350 807 b 594 881 494 750 563 771 b 600 910 596 888 599 897 l 585 908 b 571 883 583 900 579 892 b 465 881 550 863 531 863 l 435 892 l 406 901 b 190 818 288 940 222 917 b 183 790 186 808 185 799 z m 289 557 b 371 667 289 635 319 671 b 444 561 415 663 435 639 b 446 526 446 553 446 542 l 446 157 b 392 46 446 92 428 56 b 289 174 329 29 289 69 z "},"ö":{"ha":736,"x_min":0,"x_max":0,"o":"m 31 324 b 83 139 35 249 51 188 b 440 -19 171 1 300 -53 b 658 153 533 3 606 60 b 704 314 683 199 699 253 b 676 521 711 390 701 460 b 417 740 626 644 532 724 b 107 607 293 758 190 714 b 35 419 69 558 44 496 l 31 372 z m 240 800 b 313 831 268 800 292 810 b 313 971 351 869 351 932 b 240 1000 292 990 267 1000 b 139 900 185 1000 139 954 b 240 800 139 846 183 801 z m 506 800 b 576 831 532 800 556 810 b 576 971 615 869 615 932 b 504 1000 556 990 531 1000 b 403 901 449 1000 403 956 b 506 800 401 846 449 799 z m 289 557 b 371 667 289 635 319 671 b 444 561 415 663 435 639 b 446 526 446 553 446 542 l 446 157 b 392 46 446 92 428 56 b 289 174 329 29 289 69 z "},"ø":{"ha":740,"x_min":0,"x_max":0,"o":"m 136 76 b 171 43 149 63 160 51 b 485 -7 261 -33 367 -50 b 661 153 557 18 615 71 b 707 314 688 199 703 253 b 681 521 713 390 704 458 b 657 574 671 544 664 561 b 650 585 654 578 651 581 l 642 599 l 708 664 l 671 703 l 608 635 b 419 740 561 694 499 729 b 111 607 297 758 194 714 b 39 419 75 561 51 499 b 35 322 35 388 33 354 b 101 111 40 239 63 168 l 31 35 l 65 -1 z m 294 556 b 297 588 294 563 296 572 b 400 660 310 654 343 678 b 447 569 424 653 440 622 b 449 540 449 563 449 553 l 449 474 l 294 310 z m 293 235 l 449 397 l 449 157 b 396 46 449 93 431 56 b 293 174 333 29 293 69 z "},"ù":{"ha":731,"x_min":0,"x_max":0,"o":"m 38 667 b 71 606 60 647 71 626 l 71 200 b 72 167 71 185 71 174 b 304 -17 82 8 160 -53 b 392 22 338 -8 367 4 b 432 54 401 29 415 39 l 432 0 l 711 0 l 692 21 b 661 104 671 50 661 78 l 661 750 l 613 733 b 493 697 581 721 540 710 b 379 681 447 686 408 681 b 417 638 396 668 408 654 b 432 603 426 622 432 610 l 432 167 b 371 104 432 135 404 106 b 301 167 333 103 301 132 l 301 750 b 165 700 254 726 208 710 b 19 681 114 688 65 682 b 38 667 26 676 32 672 z m 297 990 l 131 990 l 372 772 l 433 772 z "},"ú":{"ha":731,"x_min":0,"x_max":0,"o":"m 38 667 b 71 606 60 647 71 626 l 71 200 b 72 167 71 185 71 174 b 304 -17 82 8 160 -53 b 392 22 338 -8 367 4 b 432 54 401 29 415 39 l 432 0 l 711 0 l 692 21 b 661 104 671 50 661 78 l 661 750 l 613 733 b 493 697 581 721 540 710 b 379 681 447 686 408 681 b 417 638 396 668 408 654 b 432 603 426 622 432 610 l 432 167 b 371 104 432 135 404 106 b 301 167 333 103 301 132 l 301 750 b 165 700 254 726 208 710 b 19 681 114 688 65 682 b 38 667 26 676 32 672 z m 486 975 l 331 774 l 393 774 l 651 975 z "},"û":{"ha":731,"x_min":0,"x_max":0,"o":"m 38 667 b 71 606 60 647 71 626 l 71 200 b 72 167 71 185 71 174 b 304 -17 82 8 160 -53 b 392 22 338 -8 367 4 b 432 54 401 29 415 39 l 432 0 l 711 0 l 692 21 b 661 104 671 50 661 78 l 661 750 l 613 733 b 493 697 581 721 540 710 b 379 681 447 686 408 681 b 417 638 396 668 408 654 b 432 603 426 622 432 610 l 432 167 b 371 104 432 135 404 106 b 301 167 333 103 301 132 l 301 750 b 165 700 254 726 208 710 b 19 681 114 688 65 682 b 38 667 26 676 32 672 z m 524 775 l 576 783 l 439 972 l 321 972 l 175 783 l 228 775 l 375 897 z "},"ü":{"ha":731,"x_min":0,"x_max":0,"o":"m 38 667 b 71 606 60 647 71 626 l 71 200 b 72 167 71 185 71 174 b 304 -17 82 8 160 -53 b 392 22 338 -8 367 4 b 432 54 401 29 415 39 l 432 0 l 711 0 l 692 21 b 661 104 671 50 661 78 l 661 750 l 613 733 b 493 697 581 721 540 710 b 379 681 447 686 408 681 b 417 638 396 668 408 654 b 432 603 426 622 432 610 l 432 167 b 371 104 432 135 404 106 b 301 167 333 103 301 132 l 301 750 b 165 700 254 726 208 710 b 19 681 114 688 65 682 b 38 667 26 676 32 672 z m 239 800 b 311 831 267 800 290 810 b 311 971 350 869 350 932 b 239 1000 290 990 265 1000 b 138 900 183 1000 138 954 b 239 800 138 846 183 801 z m 504 800 b 575 831 533 800 557 810 b 575 971 614 869 614 932 b 504 1000 554 990 531 1000 b 403 901 447 1000 403 956 b 504 800 401 846 447 799 z "},"ÿ":{"ha":699,"x_min":0,"x_max":0,"o":"m -3 660 b 43 599 19 638 35 617 l 306 4 b 296 -37 308 -6 306 -19 b 271 -67 286 -53 278 -62 b 238 -67 257 -74 246 -74 l 233 -62 l 210 -46 l 197 -37 b 114 -14 169 -22 142 -14 b 25 -60 74 -15 44 -31 b 19 -160 7 -89 4 -122 b 119 -236 35 -196 68 -221 b 326 -175 192 -258 261 -237 b 390 -74 353 -149 374 -115 l 581 414 b 690 653 593 446 631 526 l 718 710 l 456 710 b 504 613 481 682 497 650 b 500 496 513 571 511 532 l 432 289 l 294 606 l 257 685 b 238 753 253 696 246 718 b 46 693 160 728 96 708 b -19 675 35 692 -3 679 z m 250 771 b 322 800 276 771 301 781 b 321 942 361 839 361 903 b 149 871 264 1007 143 954 b 250 771 149 817 194 771 z m 413 871 b 586 801 408 788 528 733 b 585 942 625 839 625 903 b 413 871 528 1006 407 957 z "},"ı":{"ha":368,"x_min":0,"x_max":0,"o":"m 349 0 b 318 43 339 10 328 25 b 299 104 306 68 299 89 l 299 750 l 250 733 b 133 697 218 721 179 710 b 21 681 88 686 50 681 b 69 593 53 661 69 632 l 69 106 b 40 24 69 78 60 50 b 19 0 33 14 26 7 l 349 0 z "},"Œ":{"ha":1769,"x_min":0,"x_max":0,"o":"m 256 925 b 175 856 226 904 199 882 l 168 846 l 158 835 b 132 799 147 821 139 808 b 68 682 101 754 81 715 b 43 549 56 649 47 604 b 47 394 39 486 40 435 b 117 200 60 322 82 257 b 268 40 160 132 210 78 b 478 -36 328 0 397 -25 b 611 -40 528 -43 572 -44 b 776 0 682 -33 738 -21 l 1464 0 b 1564 -11 1501 -7 1535 -10 l 1625 -11 l 1656 53 b 1760 246 1694 132 1729 197 b 1632 250 1715 257 1672 258 b 1467 189 1592 243 1536 222 l 1425 168 l 1332 117 l 1329 115 b 1208 79 1289 97 1249 85 b 1106 78 1175 74 1140 74 l 1106 525 b 1160 526 1118 526 1136 526 b 1560 415 1311 524 1444 486 l 1589 397 l 1644 426 b 1600 496 1633 442 1618 464 b 1517 711 1560 567 1532 638 b 1492 697 1511 707 1503 703 b 1389 647 1449 674 1414 657 b 1281 624 1364 639 1328 631 b 1161 610 1246 617 1206 613 b 1097 608 1147 608 1126 608 l 1097 928 b 1211 922 1133 936 1171 935 b 1264 906 1243 914 1260 908 l 1296 889 b 1506 793 1404 833 1474 801 b 1707 804 1596 769 1663 772 l 1679 844 b 1615 946 1661 872 1639 906 b 1561 1043 1592 986 1574 1018 b 1450 1013 1524 1028 1486 1018 b 1293 1001 1414 1007 1361 1003 b 1242 1000 1282 1001 1253 1000 l 786 1000 b 738 1008 774 1003 750 1008 b 413 950 576 1026 490 1010 b 296 778 351 904 313 846 b 325 547 275 689 285 613 b 485 446 365 482 418 449 b 617 481 540 443 585 454 b 678 606 660 515 681 557 b 631 697 675 646 660 676 b 536 717 603 719 571 726 b 510 704 526 713 517 708 b 499 600 469 681 465 628 b 522 585 506 593 514 588 b 575 578 539 578 557 575 b 449 544 563 528 510 511 b 393 671 408 569 389 611 b 511 808 397 742 438 788 b 536 814 517 810 525 813 b 782 683 625 825 707 782 b 858 539 810 646 835 597 b 904 338 888 461 903 394 b 858 158 907 263 892 203 b 386 250 764 19 524 40 l 353 303 b 265 511 310 379 281 449 b 244 751 242 610 235 690 b 328 943 254 813 282 876 b 351 975 329 944 336 956 b 256 925 319 963 288 946 z "},"œ":{"ha":1179,"x_min":0,"x_max":0,"o":"m 261 719 b 107 601 201 699 150 658 b 32 403 64 544 39 479 b 31 349 31 390 31 372 l 31 336 l 32 319 b 99 126 39 243 61 179 b 265 0 144 60 189 26 b 450 -12 326 -21 388 -25 b 583 53 496 -3 540 18 l 611 78 b 653 53 621 71 643 60 b 831 -7 715 18 775 -1 b 1017 10 901 -15 963 -10 b 1169 138 1093 38 1143 81 l 1144 129 b 833 197 1025 94 921 117 b 722 379 778 247 740 308 l 1140 378 b 1131 486 1142 411 1138 447 b 1076 615 1121 535 1103 578 b 821 742 1015 706 939 746 b 628 668 758 740 693 715 b 601 647 624 667 607 653 b 261 719 519 736 396 764 z m 293 533 b 296 574 293 551 294 564 b 321 649 300 606 308 631 b 424 646 349 682 394 681 b 456 533 439 628 449 590 b 458 500 457 518 458 507 l 458 169 b 456 143 458 163 457 154 b 432 71 451 111 443 88 b 325 71 408 33 358 32 b 296 138 313 86 303 108 b 293 169 294 153 293 163 z m 717 446 b 707 479 714 453 711 464 b 772 650 689 583 717 639 b 868 589 807 656 839 635 b 896 475 883 567 892 529 b 897 446 897 468 897 458 z "},"Ÿ":{"ha":910,"x_min":0,"x_max":0,"o":"m -4 993 b 35 956 15 982 28 969 l 282 456 l 310 410 b 315 343 314 400 315 378 l 315 108 b 269 19 315 82 300 53 b 249 0 265 14 258 7 l 636 0 b 608 18 625 4 615 11 b 565 100 579 42 565 68 l 565 383 l 725 683 l 768 764 l 772 774 b 894 956 810 839 851 900 b 929 1000 910 976 921 990 l 619 1000 b 667 900 646 971 661 938 b 656 789 672 851 668 815 l 528 522 l 363 856 b 353 879 361 863 353 878 b 361 1000 340 924 343 964 l -19 1000 b -4 993 -18 1000 -12 997 z m 340 1061 b 413 1090 367 1061 392 1071 b 411 1232 451 1129 451 1193 b 340 1261 392 1251 368 1261 b 239 1161 283 1261 239 1217 b 340 1061 239 1106 283 1061 z m 503 1161 b 676 1092 499 1078 618 1024 b 675 1232 715 1129 715 1193 b 503 1161 618 1296 497 1247 z "},"ƒ":{"ha":610,"x_min":0,"x_max":0,"o":"m 150 -218 b 143 -247 150 -226 147 -236 b 74 -281 128 -285 94 -297 b 57 -239 56 -268 50 -254 b 71 -187 64 -221 68 -203 b -32 -92 81 -119 35 -76 b -107 -146 -64 -97 -89 -115 b -126 -222 -122 -169 -129 -194 b 56 -333 -119 -293 -60 -329 b 179 -307 110 -335 151 -326 b 264 -189 208 -287 236 -249 b 303 -50 279 -154 293 -107 l 422 619 l 499 619 l 514 710 l 438 710 b 424 797 447 739 444 751 l 378 900 b 372 935 374 907 372 919 b 381 964 374 947 376 957 b 450 999 396 1001 429 1015 b 467 956 468 986 474 971 b 453 904 461 942 457 925 b 556 808 443 836 489 793 b 631 863 588 814 613 832 b 649 910 640 878 646 893 b 575 1033 657 967 632 1008 b 422 1049 542 1049 490 1054 b 265 1007 354 1043 301 1029 b 185 913 224 981 197 949 b 217 763 163 847 174 797 l 207 710 l 146 710 l 131 619 l 192 619 l 86 7 b 100 -81 76 -22 78 -32 l 146 -183 b 150 -218 150 -192 151 -203 z "},"ˆ":{"ha":401,"x_min":0,"x_max":0,"o":"m 349 775 l 401 783 l 264 972 l 146 972 l 0 783 l 53 775 l 200 897 z "},"ˇ":{"ha":401,"x_min":0,"x_max":0,"o":"m 401 971 l 349 971 l 200 863 l 53 971 l 0 971 l 146 775 l 264 775 z "},"˘":{"ha":394,"x_min":0,"x_max":0,"o":"m 143 771 b 324 804 210 750 269 761 b 394 972 378 847 401 904 l 338 981 b 197 858 328 910 268 858 b 57 981 126 858 67 910 l 0 972 b 143 771 -4 882 54 799 z "},"˙":{"ha":368,"x_min":0,"x_max":0,"o":"m 179 807 b 307 925 256 811 303 858 b 174 1050 311 1003 261 1051 b 42 922 89 1050 36 996 b 179 807 47 854 106 806 z "},"˚":{"ha":269,"x_min":0,"x_max":0,"o":"m 135 772 b 231 811 171 772 203 785 b 231 997 282 863 282 947 b 39 999 176 1051 93 1050 b 0 906 13 972 0 942 b 135 772 0 833 58 774 z m 63 906 b 135 976 61 944 94 976 b 186 856 203 976 229 899 b 135 836 171 843 154 836 b 63 906 94 838 63 868 z "},"˛":{"ha":694,"x_min":0,"x_max":0,"o":"m 490 0 b 382 -153 418 -39 382 -90 b 535 -285 382 -232 442 -285 b 658 -242 582 -285 624 -271 l 647 -219 b 619 -221 639 -221 629 -221 b 492 -110 540 -221 492 -178 b 553 0 492 -74 513 -37 l 490 0 z "},"˜":{"ha":417,"x_min":0,"x_max":0,"o":"m 15 792 b 133 819 19 833 60 843 l 167 807 b 411 881 311 750 379 771 b 417 910 413 888 415 897 l 401 908 b 388 883 400 900 396 892 b 282 881 367 863 347 863 b 251 892 276 882 258 890 l 222 901 b 7 818 104 940 39 917 b 0 790 3 808 1 799 l 15 792 z "},"˝":{"ha":694,"x_min":0,"x_max":0,"o":"m 285 935 l 211 715 l 268 715 l 475 935 z m 528 935 l 454 715 l 511 715 l 718 935 z "},"–":{"ha":838,"x_min":0,"x_max":0,"o":"m 33 596 l 33 397 l 804 397 l 804 596 z "},"—":{"ha":950,"x_min":0,"x_max":0,"o":"m 50 493 l 50 350 l 900 350 l 900 493 z "},"‘":{"ha":368,"x_min":0,"x_max":0,"o":"m 179 564 b 318 690 267 558 322 611 b 314 718 318 699 317 708 b 288 767 307 742 299 757 b 247 807 268 785 254 797 b 251 926 218 847 219 888 b 297 985 281 961 296 981 b 294 1006 300 989 299 996 b 218 996 290 1028 256 1028 l 161 943 b 125 900 149 931 138 917 b 81 824 106 874 90 847 b 50 700 58 774 49 732 b 179 564 51 621 106 568 z "},"’":{"ha":368,"x_min":0,"x_max":0,"o":"m 51 863 b 78 814 57 842 65 826 b 118 774 101 792 114 778 b 114 654 147 733 146 693 b 67 594 85 618 68 599 b 71 574 65 592 67 585 b 147 585 76 551 113 551 l 204 636 b 240 679 221 654 233 669 b 286 757 261 708 276 733 b 188 1017 347 908 299 1010 b 50 921 111 1021 63 983 b 51 863 46 901 47 882 z "},"‚":{"ha":368,"x_min":0,"x_max":0,"o":"m 51 81 b 78 32 58 60 67 43 b 118 -7 101 11 114 -3 b 114 -128 147 -49 146 -89 b 67 -186 85 -162 69 -182 b 71 -207 65 -190 67 -197 b 147 -197 76 -229 113 -229 l 204 -144 b 240 -101 221 -126 233 -111 b 286 -24 261 -72 276 -47 b 188 236 347 128 299 229 b 50 140 114 240 63 203 b 51 81 46 121 47 101 z "},"“":{"ha":736,"x_min":0,"x_max":0,"o":"m 179 564 b 318 690 267 558 322 611 b 314 718 318 699 317 708 b 288 767 307 742 299 757 b 247 807 268 785 254 797 b 251 926 218 847 219 888 b 297 985 281 961 296 981 b 294 1006 300 989 299 996 b 218 996 290 1028 256 1028 l 161 943 b 125 900 149 931 138 917 b 81 824 106 874 90 847 b 50 700 58 774 49 732 b 179 564 51 621 106 568 z m 547 564 b 686 690 635 558 690 611 b 682 718 686 699 685 708 b 656 767 675 742 667 757 b 615 807 636 785 622 797 b 619 926 586 847 588 888 b 665 985 649 961 664 981 b 663 1006 668 989 667 996 b 586 996 658 1028 624 1028 l 529 943 b 493 900 517 931 506 917 b 449 824 474 874 458 847 b 418 700 426 774 417 732 b 547 564 419 621 474 568 z "},"”":{"ha":736,"x_min":0,"x_max":0,"o":"m 51 863 b 78 814 57 842 65 826 b 118 774 101 792 114 778 b 114 654 147 733 146 693 b 67 594 85 618 68 599 b 71 574 65 592 67 585 b 147 585 76 551 113 551 l 204 636 b 240 679 221 654 233 669 b 286 757 261 708 276 733 b 188 1017 347 908 299 1010 b 50 921 111 1021 63 983 b 51 863 46 901 47 882 z m 419 863 b 446 814 425 842 433 826 b 486 774 469 792 482 778 b 482 654 515 733 514 693 b 435 594 453 618 436 599 b 439 574 433 592 435 585 b 515 585 444 551 481 551 l 572 636 b 608 679 589 654 601 669 b 654 757 629 708 644 733 b 556 1017 715 908 667 1010 b 418 921 479 1021 431 983 b 419 863 414 901 415 882 z "},"„":{"ha":736,"x_min":0,"x_max":0,"o":"m 51 81 b 78 32 58 60 67 43 b 118 -7 101 11 114 -3 b 114 -128 147 -49 146 -89 b 67 -186 85 -162 69 -182 b 71 -207 65 -190 67 -197 b 147 -197 76 -229 113 -229 l 204 -144 b 240 -101 221 -126 233 -111 b 286 -24 261 -72 276 -47 b 188 236 347 128 299 229 b 50 140 114 240 63 203 b 51 81 46 121 47 101 z m 419 81 b 446 32 426 60 435 43 b 486 -7 469 11 482 -3 b 482 -128 515 -49 514 -89 b 435 -186 453 -162 438 -182 b 439 -207 433 -190 435 -197 b 515 -197 444 -229 481 -229 l 572 -144 b 608 -101 589 -126 601 -111 b 654 -24 629 -72 644 -47 b 556 236 715 128 667 229 b 418 140 482 240 431 203 b 419 81 414 121 415 101 z "},"†":{"ha":825,"x_min":0,"x_max":0,"o":"m 606 521 b 654 510 621 514 636 510 b 742 611 700 510 742 557 b 653 713 742 667 701 713 b 604 701 635 713 619 708 l 557 679 b 456 654 528 665 494 657 l 456 665 l 456 668 b 479 771 456 703 464 738 l 503 818 b 514 867 510 833 514 849 b 413 954 514 913 467 954 b 311 865 357 954 311 914 b 322 817 311 847 315 832 l 344 769 b 369 669 361 735 369 701 l 369 654 b 267 681 333 657 299 665 l 219 703 b 172 715 203 711 188 715 b 83 613 124 715 83 668 b 171 511 83 558 125 511 b 219 524 186 511 203 515 l 267 546 b 356 569 300 561 329 569 l 369 569 b 342 478 364 532 354 501 b 271 394 329 454 306 426 b 344 174 311 338 335 264 b 369 -193 361 22 369 -100 l 456 -193 l 456 -185 l 456 -181 b 465 14 456 -153 458 -87 b 488 224 472 114 481 183 b 554 394 501 294 524 351 b 456 569 488 456 463 497 b 558 543 493 565 528 557 l 606 521 z "},"‡":{"ha":825,"x_min":0,"x_max":0,"o":"m 474 567 b 558 543 506 563 535 556 l 606 521 b 654 510 621 514 636 510 b 742 611 703 510 742 556 b 653 713 742 667 701 713 b 604 701 635 713 619 708 l 557 679 b 456 656 528 665 493 657 b 479 771 456 700 464 739 l 503 818 b 514 867 510 833 514 849 b 413 954 514 913 467 954 b 311 865 357 954 311 914 b 322 817 311 847 315 832 l 344 769 b 369 656 361 733 369 696 b 267 681 335 657 300 665 l 219 703 b 172 715 203 711 188 715 b 83 613 124 715 83 668 b 171 511 83 558 125 511 b 219 524 186 511 203 515 l 267 546 b 356 569 297 560 326 568 l 364 569 l 369 569 b 263 381 360 493 335 447 b 369 179 331 332 367 264 l 364 179 b 267 204 324 183 292 192 l 219 226 b 171 239 203 235 186 239 b 83 138 125 239 83 192 b 172 35 83 81 124 35 b 219 46 189 35 204 39 l 267 68 b 369 93 300 83 335 92 l 369 75 b 344 -37 369 36 361 -1 l 322 -85 b 310 -133 314 -101 310 -118 b 413 -221 310 -182 357 -221 b 514 -132 468 -221 514 -181 b 503 -83 514 -114 510 -99 l 479 -36 b 454 76 463 -3 454 35 b 456 93 454 83 454 89 b 557 68 496 89 531 81 l 604 44 b 653 33 619 38 635 33 b 742 135 701 33 742 81 b 653 236 742 190 701 236 b 606 225 638 236 622 232 l 558 203 b 469 178 524 186 493 178 l 460 178 l 456 179 b 563 381 458 264 494 332 b 456 569 490 447 465 493 l 461 568 l 474 567 z "},"•":{"ha":926,"x_min":0,"x_max":0,"o":"m 465 663 b 328 606 411 663 365 643 b 272 471 290 568 272 524 b 328 333 272 417 290 371 b 465 278 365 296 411 278 b 600 333 518 278 563 296 b 657 471 638 371 657 417 b 600 606 657 524 638 568 b 465 663 563 643 518 663 z "},"…":{"ha":1514,"x_min":0,"x_max":0,"o":"m 346 15 b 346 201 397 67 397 150 b 160 201 294 253 211 253 b 160 15 108 150 108 67 b 346 15 211 -36 294 -36 z m 850 15 b 850 201 901 67 901 150 b 664 201 799 253 715 253 b 664 15 613 150 613 67 b 850 15 715 -36 799 -36 z m 1356 15 b 1356 201 1407 67 1407 150 b 1169 201 1304 253 1221 253 b 1169 15 1118 150 1118 67 b 1356 15 1221 -36 1304 -36 z "},"‰":{"ha":1326,"x_min":0,"x_max":0,"o":"m 40 725 b 176 506 47 606 93 532 b 344 540 238 485 293 496 b 422 779 396 585 429 675 b 346 954 415 858 390 917 b 115 949 268 1019 192 1017 b 43 793 72 910 56 872 b 40 761 42 778 40 768 z m 818 944 l 761 994 l 40 47 l 99 1 l 103 6 z m 611 0 b 785 83 682 -10 739 18 b 826 214 807 114 821 157 b 813 357 832 269 828 317 b 653 499 779 453 740 488 b 507 440 597 506 549 486 b 444 251 467 394 446 332 b 611 0 443 111 517 15 z m 85 828 b 190 899 89 885 133 917 b 265 851 211 892 236 876 b 296 824 272 846 283 836 b 363 721 329 786 351 753 b 293 583 389 631 360 579 b 135 706 244 586 192 626 b 85 828 100 756 83 796 z m 493 338 b 497 357 493 339 496 351 b 644 386 515 417 582 432 b 711 325 667 369 689 349 b 783 182 756 274 779 226 b 693 96 789 122 744 83 b 608 139 661 103 633 117 b 493 338 536 201 489 292 z m 1069 0 b 1243 83 1140 -10 1197 18 b 1285 214 1265 114 1279 157 b 1271 357 1290 269 1286 317 b 1111 499 1238 453 1199 488 b 965 440 1056 506 1007 486 b 903 251 925 394 904 332 b 1069 0 901 111 975 15 z m 951 338 b 956 357 951 339 954 351 b 1103 386 974 417 1040 432 b 1169 325 1125 369 1147 349 b 1242 182 1214 274 1238 226 b 1151 96 1247 122 1203 83 b 1067 139 1119 103 1092 117 b 951 338 994 201 947 292 z "},"‹":{"ha":403,"x_min":0,"x_max":0,"o":"m 221 342 l 372 681 l 258 681 l 31 342 l 260 0 l 369 0 z "},"›":{"ha":403,"x_min":0,"x_max":0,"o":"m 143 681 l 33 681 l 182 342 l 31 0 l 144 0 l 372 342 z "},"€":{"ha":1172,"x_min":0,"x_max":0,"o":"m 135 414 b 388 47 157 264 247 132 b 507 -8 454 6 469 10 b 963 53 683 -54 835 -33 b 1132 276 1053 115 1108 189 b 1108 261 1126 272 1113 263 b 869 161 1018 207 939 174 b 625 172 800 149 718 153 b 453 311 543 199 496 238 b 418 410 444 325 433 358 l 417 414 l 771 414 l 794 469 l 403 469 l 393 525 l 818 525 l 842 581 l 388 581 b 389 661 386 613 386 639 b 668 940 411 890 525 986 b 768 879 694 932 728 911 b 897 788 825 833 868 803 b 1122 761 976 747 1051 739 l 1103 794 l 1097 803 l 1033 911 b 992 1003 1022 931 1008 961 b 942 981 974 990 957 983 b 886 976 915 974 896 972 b 638 1032 788 1011 704 1031 b 439 990 571 1033 504 1019 b 235 822 361 956 293 900 b 146 631 192 764 163 700 l 136 581 l 63 581 l 39 525 l 129 525 l 129 469 l 63 469 l 39 414 l 135 414 z "},"™":{"ha":1532,"x_min":0,"x_max":0,"o":"m 18 756 l 86 756 b 160 863 92 835 111 863 l 242 863 l 242 511 b 229 444 242 474 238 451 b 154 435 221 438 196 435 l 154 371 l 497 371 l 497 435 b 421 444 454 435 429 438 b 408 511 413 451 408 474 l 408 863 l 482 863 b 568 756 544 863 563 840 l 636 756 l 626 926 l 26 926 z m 689 863 b 758 851 728 863 751 858 b 771 785 767 844 771 822 l 771 517 b 756 449 771 481 765 458 b 682 433 746 439 722 435 l 682 369 l 938 369 l 938 433 l 918 433 b 851 504 867 433 851 449 l 849 764 l 858 744 l 1014 369 l 1089 369 l 1242 735 l 1251 761 l 1247 511 b 1233 444 1246 474 1242 451 b 1160 433 1226 438 1201 433 l 1160 369 l 1503 369 l 1503 433 b 1428 444 1461 433 1436 438 b 1415 511 1419 451 1415 474 l 1415 785 b 1426 851 1415 822 1419 844 b 1497 863 1435 858 1458 863 l 1497 926 l 1238 926 l 1101 596 l 1096 578 l 1090 596 l 958 926 l 689 926 z "},"∕":{"ha":208,"x_min":0,"x_max":0,"o":"m -149 0 l -69 0 l 356 917 l 278 917 z "},"":{"ha":1172,"x_min":0,"x_max":0,"o":"m 388 47 b 507 -8 454 6 469 10 b 963 53 683 -54 835 -33 b 1132 276 1053 115 1108 189 b 1108 261 1126 272 1113 263 b 869 161 1018 207 939 174 b 625 172 800 149 718 153 b 453 311 543 199 496 238 b 418 410 444 325 433 358 b 389 661 392 504 382 588 b 668 940 411 890 525 986 b 768 879 694 932 728 911 b 897 788 825 833 868 803 b 1122 761 976 747 1051 739 l 1103 794 l 1097 803 l 1033 911 b 992 1003 1022 931 1008 961 b 942 981 974 990 957 983 b 886 976 915 974 896 972 b 638 1032 788 1011 704 1031 b 439 990 571 1033 504 1019 b 235 822 361 956 293 900 b 146 631 192 764 163 700 b 167 297 117 513 124 401 b 388 47 210 193 283 110 z m 842 581 l 63 581 l 39 525 l 818 525 z m 794 469 l 63 469 l 39 414 l 771 414 z "},"ﬁ":{"ha":785,"x_min":0,"x_max":0,"o":"m 765 0 b 735 43 756 10 744 25 b 715 104 722 68 715 89 l 715 750 l 667 733 b 550 697 635 721 596 710 b 438 681 504 686 467 681 b 486 593 469 661 486 632 l 486 106 b 457 24 486 78 476 50 b 436 0 450 14 443 7 z m 472 874 b 596 807 497 826 539 804 b 724 925 672 808 719 857 b 590 1050 728 1003 678 1051 b 463 968 522 1050 481 1022 b 382 1033 450 993 422 1015 b 228 1049 344 1049 293 1054 b 76 1007 160 1044 110 1031 b 14 911 40 981 19 949 b 71 763 4 843 22 793 l 71 710 l 10 710 l 10 619 l 71 619 l 71 125 b 56 63 71 107 65 86 b 18 0 47 40 35 19 l 358 0 b 340 24 351 10 344 17 b 301 139 314 64 301 101 l 301 619 l 378 619 l 378 710 l 301 710 b 271 797 303 742 300 753 l 207 900 b 197 935 201 911 199 922 b 199 967 196 947 196 957 b 263 999 206 999 239 1014 b 288 956 283 988 292 974 b 283 925 285 946 283 936 b 401 808 276 843 331 793 b 472 874 436 817 460 839 z "},"ﬂ":{"ha":786,"x_min":0,"x_max":0,"o":"m 468 957 b 486 883 481 942 486 917 l 486 164 b 436 0 486 89 469 35 l 767 0 b 717 122 733 26 717 68 l 717 1050 b 654 1021 696 1039 675 1029 b 454 981 593 997 526 983 b 382 1033 440 1001 417 1018 b 228 1049 344 1049 293 1054 b 76 1007 160 1044 110 1031 b 14 911 40 981 19 949 b 71 763 4 843 22 793 l 71 710 l 10 710 l 10 619 l 71 619 l 71 125 b 56 63 71 107 65 86 b 18 0 47 40 35 19 l 358 0 b 340 24 351 10 344 17 b 301 139 314 64 301 101 l 301 619 l 378 619 l 378 710 l 301 710 b 271 797 303 742 300 753 l 207 900 b 197 935 201 911 199 922 b 199 967 196 947 196 957 b 263 999 206 999 239 1014 b 288 956 283 988 292 974 b 283 925 285 946 283 936 b 401 808 276 843 331 793 b 468 957 463 824 494 890 z "}}}
